<svg xmlns="http://www.w3.org/2000/svg" width="1922" height="386" fill="none"><path stroke="#fff" stroke-width="6" d="M1.937 254.315c38.56-21.505 155.278-54.726 313.67-15.573C513.598 287.684 777.749 77.887 788.872 40.068c11.123-37.818-33.369-53.39-40.043-11.123-6.674 42.268-118.114 373.64-183.865 349.948-35.541-33.173 31.987-77.861 79.887-77.861 62.277 0 85.378 46.465 144.021 46.465 73.446 0 145.179-30.893 145.179-73.161 0-36.689-60.159 0-86.537 0-44.426 0-24.747-48.941 22.023-48.941 81.046 0 135.663-105.228 131.253-122.804-4.412-17.576-32.646 9.058-6.812 100.558 28.522 101.037-32.496 199.388-59.927 175.744-26.117-22.511 119.429-123.16 130.549-192.123 6.13-37.998-25.43-20.23-25.43 16.379 0 36.054 3.89 111.23-7.24 129.027-11.12 17.797-36.807-4.449 36.61-71.187 73.41-66.739 22.24-86.76 11.12-35.594-11.12 51.166-7.34 53.102 1.56 84.246 8.9 31.145-12.68 43.308-12.68 14.388s32.09-49.693 61.28-69.714c32.45-22.263 125.09-93.434 91.21-93.434-10.42 0-33.37 15.572-24.47 64.514 10.79 59.377-.7 160.929-40.05 153.498-21.87-4.132 35.78-80.92 72.91-108.324 54.82-40.451 66.27-58.522 228.66-45.174 162.4 13.347 274.61 75.637 461.48-53.391"/></svg>