<svg width="664" height="318" viewBox="0 0 664 318" fill="none" xmlns="http://www.w3.org/2000/svg">
<path d="M0.273482 159.395C0.273479 195.488 12.5922 230.5 35.1927 258.642C57.7931 286.783 89.3215 306.369 124.564 314.159C159.807 321.949 196.653 317.477 229.009 301.483C261.365 285.489 287.294 258.931 302.507 226.201L230.64 192.798C223.034 209.163 210.069 222.442 193.891 230.439C177.713 238.436 159.29 240.672 141.669 236.777C124.047 232.882 108.283 223.089 96.9831 209.018C85.6829 194.947 79.5235 177.441 79.5235 159.395L0.273482 159.395Z" fill="#FF37F7"/>
<path d="M317.273 159.395C317.273 138.58 313.174 117.969 305.208 98.7392C297.243 79.5091 285.568 62.0362 270.85 47.3181C256.132 32.6 238.659 20.925 219.429 12.9596C200.199 4.99425 179.588 0.89453 158.773 0.894531V80.1445C169.181 80.1445 179.486 82.1944 189.101 86.1771C198.716 90.1597 207.453 95.9973 214.812 103.356C222.171 110.715 228.008 119.452 231.991 129.067C235.974 138.682 238.023 148.987 238.023 159.395H317.273Z" fill="#5A20FF"/>
<path d="M302.55 226.106C312.43 204.814 317.457 181.594 317.268 158.123L238.021 158.759C238.115 170.494 235.601 182.104 230.662 192.75L302.55 226.106Z" fill="#CBCBCB"/>
<path d="M0.273485 159.395C0.273483 138.58 4.37321 117.969 12.3386 98.7393C20.3039 79.5092 31.979 62.0362 46.697 47.3181C61.4151 32.6001 78.888 20.925 98.1181 12.9597C117.348 4.99431 137.959 0.894577 158.773 0.894576L158.773 80.1446C148.366 80.1446 138.061 82.1944 128.446 86.1771C118.831 90.1598 110.094 95.9973 102.735 103.356C95.3762 110.715 89.5387 119.452 85.556 129.067C81.5733 138.682 79.5235 148.987 79.5235 159.395L0.273485 159.395Z" fill="#E4FF40"/>
<path d="M593.792 205.533H591.732L597.472 192.613L590.672 192.633V190.953H599.332L599.532 192.613L593.792 205.533ZM602.863 203.553C603.543 203.553 604.003 204.033 604.003 204.693C604.003 205.393 603.543 205.873 602.863 205.873C602.163 205.873 601.683 205.393 601.683 204.693C601.683 204.033 602.163 203.553 602.863 203.553ZM610.471 205.533H608.411L614.151 192.613L607.351 192.633V190.953H616.011L616.211 192.613L610.471 205.533ZM626.952 205.533L636.092 190.933H638.092L628.912 205.533H626.952ZM623.592 194.653C623.592 192.433 625.292 190.693 627.472 190.693C629.612 190.693 631.332 192.433 631.332 194.653C631.332 196.893 629.612 198.633 627.472 198.633C625.292 198.633 623.592 196.893 623.592 194.653ZM625.432 194.653C625.432 195.873 626.312 196.833 627.472 196.833C628.612 196.833 629.512 195.873 629.512 194.653C629.512 193.453 628.612 192.493 627.472 192.493C626.312 192.493 625.432 193.453 625.432 194.653ZM633.532 201.713C633.532 199.473 635.232 197.733 637.412 197.733C639.552 197.733 641.272 199.473 641.272 201.713C641.272 203.933 639.552 205.693 637.412 205.693C635.232 205.693 633.532 203.933 633.532 201.713ZM635.372 201.713C635.372 202.913 636.252 203.873 637.412 203.873C638.552 203.873 639.452 202.913 639.452 201.713C639.452 200.493 638.552 199.553 637.412 199.553C636.252 199.553 635.372 200.493 635.372 201.713Z" fill="white"/>
<path d="M579.529 278.589C582.429 275.789 586.529 272.729 586.529 270.229C586.529 268.509 585.449 267.289 583.889 267.289C582.729 267.289 581.549 268.149 581.009 269.369L579.329 268.649C580.109 266.829 582.009 265.569 583.889 265.569C586.569 265.569 588.429 267.489 588.429 270.229C588.429 273.289 584.929 276.169 582.169 278.589H588.669V280.249H579.729L579.529 278.589ZM595.595 278.829C597.335 278.829 598.555 277.709 598.555 276.109C598.555 274.529 597.335 273.429 595.595 273.429C593.835 273.429 592.615 274.529 592.615 276.109C592.615 277.709 593.835 278.829 595.595 278.829ZM590.715 276.129C590.715 274.849 591.695 273.389 593.095 272.589C591.935 271.809 591.115 270.509 591.115 269.469C591.115 267.129 592.955 265.489 595.595 265.489C598.215 265.489 600.075 267.129 600.075 269.469C600.075 270.529 599.255 271.809 598.095 272.589C599.475 273.389 600.455 274.849 600.455 276.129C600.455 278.669 598.455 280.469 595.595 280.469C592.735 280.469 590.715 278.669 590.715 276.129ZM593.015 269.449C593.015 270.809 594.075 271.769 595.595 271.769C597.115 271.769 598.175 270.809 598.175 269.449C598.175 268.069 597.115 267.109 595.595 267.109C594.075 267.109 593.015 268.069 593.015 269.449ZM603.773 278.289C604.453 278.289 604.913 278.769 604.913 279.429C604.913 280.129 604.453 280.609 603.773 280.609C603.073 280.609 602.593 280.129 602.593 279.429C602.593 278.769 603.073 278.289 603.773 278.289ZM608.181 278.589C611.081 275.789 615.181 272.729 615.181 270.229C615.181 268.509 614.101 267.289 612.541 267.289C611.381 267.289 610.201 268.149 609.661 269.369L607.981 268.649C608.761 266.829 610.661 265.569 612.541 265.569C615.221 265.569 617.081 267.489 617.081 270.229C617.081 273.289 613.581 276.169 610.821 278.589H617.321V280.249H608.381L608.181 278.589ZM623.448 280.269L632.588 265.669H634.588L625.408 280.269H623.448ZM620.088 269.389C620.088 267.169 621.788 265.429 623.968 265.429C626.108 265.429 627.828 267.169 627.828 269.389C627.828 271.629 626.108 273.369 623.968 273.369C621.788 273.369 620.088 271.629 620.088 269.389ZM621.928 269.389C621.928 270.609 622.808 271.569 623.968 271.569C625.108 271.569 626.008 270.609 626.008 269.389C626.008 268.189 625.108 267.229 623.968 267.229C622.808 267.229 621.928 268.189 621.928 269.389ZM630.028 276.449C630.028 274.209 631.728 272.469 633.908 272.469C636.048 272.469 637.768 274.209 637.768 276.449C637.768 278.669 636.048 280.429 633.908 280.429C631.728 280.429 630.028 278.669 630.028 276.449ZM631.868 276.449C631.868 277.649 632.748 278.609 633.908 278.609C635.048 278.609 635.948 277.649 635.948 276.449C635.948 275.229 635.048 274.289 633.908 274.289C632.748 274.289 631.868 275.229 631.868 276.449Z" fill="white"/>
<path d="M585.526 48.54C586.826 49.3 587.606 50.72 587.606 51.94C587.606 54.4 585.606 56.16 582.746 56.16C579.926 56.16 577.926 54.38 577.926 51.86H579.826C579.826 53.4 581.026 54.48 582.746 54.48C584.506 54.48 585.746 53.4 585.746 51.86C585.746 50.38 584.526 49.34 582.786 49.34H581.746V47.72H582.806C584.406 47.72 585.526 46.76 585.526 45.42C585.526 44.04 584.446 43.08 582.886 43.08C581.326 43.08 580.246 44.06 580.246 45.44H578.346C578.346 43.06 580.226 41.4 582.886 41.4C585.526 41.4 587.386 43.04 587.386 45.36C587.386 46.46 586.706 47.78 585.526 48.54ZM592.165 49.42L590.265 49.16L590.745 41.52H598.345V43.18H592.565L592.325 47.04C593.005 46.7 593.785 46.5 594.485 46.5C597.445 46.5 599.525 48.5 599.525 51.34C599.525 54.22 597.445 56.24 594.485 56.24C592.165 56.24 590.185 54.68 589.665 52.48L591.505 52.06C591.825 53.46 593.045 54.46 594.485 54.46C596.325 54.46 597.625 53.16 597.625 51.34C597.625 49.56 596.325 48.28 594.485 48.28C593.705 48.28 592.745 48.76 592.165 49.42ZM602.859 54.08C603.539 54.08 603.999 54.56 603.999 55.22C603.999 55.92 603.539 56.4 602.859 56.4C602.159 56.4 601.679 55.92 601.679 55.22C601.679 54.56 602.159 54.08 602.859 54.08ZM612.027 43.02C610.207 43.02 608.947 44.32 608.947 46.18C608.947 48.04 610.207 49.34 612.027 49.34C613.787 49.34 615.047 48.04 615.047 46.18C615.047 44.32 613.787 43.02 612.027 43.02ZM607.047 46.18C607.047 43.34 609.087 41.36 611.987 41.36C614.907 41.36 616.947 43.34 616.947 46.18C616.947 47.22 616.587 48.16 616.167 48.92L612.127 56.06H609.947L612.887 50.9C612.587 50.96 612.287 51 611.967 51C609.067 51 607.047 49 607.047 46.18ZM623.061 56.06L632.201 41.46H634.201L625.021 56.06H623.061ZM619.701 45.18C619.701 42.96 621.401 41.22 623.581 41.22C625.721 41.22 627.441 42.96 627.441 45.18C627.441 47.42 625.721 49.16 623.581 49.16C621.401 49.16 619.701 47.42 619.701 45.18ZM621.541 45.18C621.541 46.4 622.421 47.36 623.581 47.36C624.721 47.36 625.621 46.4 625.621 45.18C625.621 43.98 624.721 43.02 623.581 43.02C622.421 43.02 621.541 43.98 621.541 45.18ZM629.641 52.24C629.641 50 631.341 48.26 633.521 48.26C635.661 48.26 637.381 50 637.381 52.24C637.381 54.46 635.661 56.22 633.521 56.22C631.341 56.22 629.641 54.46 629.641 52.24ZM631.481 52.24C631.481 53.44 632.361 54.4 633.521 54.4C634.661 54.4 635.561 53.44 635.561 52.24C635.561 51.02 634.661 50.08 633.521 50.08C632.361 50.08 631.481 51.02 631.481 52.24Z" fill="white"/>
<path d="M579.529 129.116C582.429 126.316 586.529 123.256 586.529 120.756C586.529 119.036 585.449 117.816 583.889 117.816C582.729 117.816 581.549 118.676 581.009 119.896L579.329 119.176C580.109 117.356 582.009 116.096 583.889 116.096C586.569 116.096 588.429 118.016 588.429 120.756C588.429 123.816 584.929 126.696 582.169 129.116H588.669V130.776H579.729L579.529 129.116ZM595.595 129.356C597.335 129.356 598.555 128.236 598.555 126.636C598.555 125.056 597.335 123.956 595.595 123.956C593.835 123.956 592.615 125.056 592.615 126.636C592.615 128.236 593.835 129.356 595.595 129.356ZM590.715 126.656C590.715 125.376 591.695 123.916 593.095 123.116C591.935 122.336 591.115 121.036 591.115 119.996C591.115 117.656 592.955 116.016 595.595 116.016C598.215 116.016 600.075 117.656 600.075 119.996C600.075 121.056 599.255 122.336 598.095 123.116C599.475 123.916 600.455 125.376 600.455 126.656C600.455 129.196 598.455 130.996 595.595 130.996C592.735 130.996 590.715 129.196 590.715 126.656ZM593.015 119.976C593.015 121.336 594.075 122.296 595.595 122.296C597.115 122.296 598.175 121.336 598.175 119.976C598.175 118.596 597.115 117.636 595.595 117.636C594.075 117.636 593.015 118.596 593.015 119.976ZM603.773 128.816C604.453 128.816 604.913 129.296 604.913 129.956C604.913 130.656 604.453 131.136 603.773 131.136C603.073 131.136 602.593 130.656 602.593 129.956C602.593 129.296 603.073 128.816 603.773 128.816ZM608.181 129.116C611.081 126.316 615.181 123.256 615.181 120.756C615.181 119.036 614.101 117.816 612.541 117.816C611.381 117.816 610.201 118.676 609.661 119.896L607.981 119.176C608.761 117.356 610.661 116.096 612.541 116.096C615.221 116.096 617.081 118.016 617.081 120.756C617.081 123.816 613.581 126.696 610.821 129.116H617.321V130.776H608.381L608.181 129.116ZM623.448 130.796L632.588 116.196H634.588L625.408 130.796H623.448ZM620.088 119.916C620.088 117.696 621.788 115.956 623.968 115.956C626.108 115.956 627.828 117.696 627.828 119.916C627.828 122.156 626.108 123.896 623.968 123.896C621.788 123.896 620.088 122.156 620.088 119.916ZM621.928 119.916C621.928 121.136 622.808 122.096 623.968 122.096C625.108 122.096 626.008 121.136 626.008 119.916C626.008 118.716 625.108 117.756 623.968 117.756C622.808 117.756 621.928 118.716 621.928 119.916ZM630.028 126.976C630.028 124.736 631.728 122.996 633.908 122.996C636.048 122.996 637.768 124.736 637.768 126.976C637.768 129.196 636.048 130.956 633.908 130.956C631.728 130.956 630.028 129.196 630.028 126.976ZM631.868 126.976C631.868 128.176 632.748 129.136 633.908 129.136C635.048 129.136 635.948 128.176 635.948 126.976C635.948 125.756 635.048 124.816 633.908 124.816C632.748 124.816 631.868 125.756 631.868 126.976Z" fill="white"/>
<path d="M426.58 41.54V56.04L424.68 56.02V43.6L422.24 45.06L421.38 43.5L424.7 41.54H426.58ZM433.786 41.34H435.766V44.26C435.766 47.52 437.606 50.78 440.366 52.02L439.206 53.6C437.186 52.62 435.626 50.66 434.806 48.26C433.986 50.84 432.426 52.94 430.306 53.96L429.126 52.34C431.906 51.06 433.786 47.66 433.786 44.26V41.34ZM441.846 57.58V39.84H443.806V57.58H441.846ZM458.607 39.86H460.567V45.06H463.087V46.68H460.567V52.68H458.607V39.86ZM446.727 49.22C450.807 48 453.347 45.66 453.687 42.8H447.467V41.22H455.827C455.827 45.88 452.707 49.22 447.547 50.78L446.727 49.22ZM449.387 57.2V51.38H451.347V55.6H461.287V57.2H449.387ZM481.417 39.84H483.397V57.58H481.417V39.84ZM469.437 47.38C469.437 43.58 471.337 41.16 473.997 41.16C476.637 41.16 478.537 43.58 478.537 47.38C478.537 51.22 476.637 53.64 473.997 53.64C471.337 53.64 469.437 51.22 469.437 47.38ZM471.337 47.38C471.337 50.16 472.417 51.86 473.997 51.86C475.557 51.86 476.657 50.16 476.657 47.38C476.657 44.62 475.557 42.94 473.997 42.94C472.417 42.94 471.337 44.62 471.337 47.38ZM498.097 39.86H500.057V47H502.817V48.64H500.057V57.56H498.097V39.86ZM486.237 44.2V42.6H490.497V40.1H492.477V42.6H496.657V44.2H486.237ZM487.117 49.62C487.117 47.18 488.997 45.5 491.497 45.5C494.037 45.5 495.877 47.18 495.877 49.62C495.877 52.04 494.037 53.74 491.497 53.74C488.997 53.74 487.117 52.04 487.117 49.62ZM489.017 49.62C489.017 51.12 490.037 52.12 491.497 52.12C492.937 52.12 493.997 51.12 493.997 49.62C493.997 48.1 492.937 47.1 491.497 47.1C490.037 47.1 489.017 48.1 489.017 49.62Z" fill="white"/>
<path d="M426.58 116.276V130.776L424.68 130.756V118.336L422.24 119.796L421.38 118.236L424.7 116.276H426.58ZM429.906 122.436H438.526V124.316H429.906V122.436ZM441.115 129.116C444.015 126.316 448.115 123.256 448.115 120.756C448.115 119.036 447.035 117.816 445.475 117.816C444.315 117.816 443.135 118.676 442.595 119.896L440.915 119.176C441.695 117.356 443.595 116.096 445.475 116.096C448.155 116.096 450.015 118.016 450.015 120.756C450.015 123.816 446.515 126.696 443.755 129.116H450.255V130.776H441.315L441.115 129.116ZM456.501 116.076H458.481V118.996C458.481 122.256 460.321 125.516 463.081 126.756L461.921 128.336C459.901 127.356 458.341 125.396 457.521 122.996C456.701 125.576 455.141 127.676 453.021 128.696L451.841 127.076C454.621 125.796 456.501 122.396 456.501 118.996V116.076ZM464.561 132.316V114.576H466.521V132.316H464.561ZM481.322 114.596H483.282V119.796H485.802V121.416H483.282V127.416H481.322V114.596ZM469.442 123.956C473.522 122.736 476.062 120.396 476.402 117.536H470.182V115.956H478.542C478.542 120.616 475.422 123.956 470.262 125.516L469.442 123.956ZM472.102 131.936V126.116H474.062V130.336H484.002V131.936H472.102ZM495.772 116.076H497.712V118.996C497.712 122.136 499.432 125.376 502.072 126.676L500.872 128.236C498.972 127.236 497.532 125.296 496.772 122.956C495.992 125.456 494.492 127.536 492.472 128.576L491.292 126.976C494.012 125.656 495.772 122.256 495.772 118.996V116.076ZM503.292 132.296V114.596H505.272V121.636H508.052V123.276H505.272V132.296H503.292ZM521.612 114.576H523.592V132.316H521.612V114.576ZM509.632 122.116C509.632 118.316 511.532 115.896 514.192 115.896C516.832 115.896 518.732 118.316 518.732 122.116C518.732 125.956 516.832 128.376 514.192 128.376C511.532 128.376 509.632 125.956 509.632 122.116ZM511.532 122.116C511.532 124.896 512.612 126.596 514.192 126.596C515.752 126.596 516.852 124.896 516.852 122.116C516.852 119.356 515.752 117.676 514.192 117.676C512.612 117.676 511.532 119.356 511.532 122.116Z" fill="white"/>
<path d="M421.74 203.853C424.64 201.053 428.74 197.993 428.74 195.493C428.74 193.773 427.66 192.553 426.1 192.553C424.94 192.553 423.76 193.413 423.22 194.633L421.54 193.913C422.32 192.093 424.22 190.833 426.1 190.833C428.78 190.833 430.64 192.753 430.64 195.493C430.64 198.553 427.14 201.433 424.38 203.853H430.88V205.513H421.94L421.74 203.853ZM433.246 197.173H441.866V199.053H433.246V197.173ZM451.835 198.013C453.135 198.773 453.915 200.193 453.915 201.413C453.915 203.873 451.915 205.633 449.055 205.633C446.235 205.633 444.235 203.853 444.235 201.333H446.135C446.135 202.873 447.335 203.953 449.055 203.953C450.815 203.953 452.055 202.873 452.055 201.333C452.055 199.853 450.835 198.813 449.095 198.813H448.055V197.193H449.115C450.715 197.193 451.835 196.233 451.835 194.893C451.835 193.513 450.755 192.553 449.195 192.553C447.635 192.553 446.555 193.533 446.555 194.913H444.655C444.655 192.533 446.535 190.873 449.195 190.873C451.835 190.873 453.695 192.513 453.695 194.833C453.695 195.933 453.015 197.253 451.835 198.013ZM460.154 190.813H462.134V193.733C462.134 196.993 463.974 200.253 466.734 201.493L465.574 203.073C463.554 202.093 461.994 200.133 461.174 197.733C460.354 200.313 458.794 202.413 456.674 203.433L455.494 201.813C458.274 200.533 460.154 197.133 460.154 193.733V190.813ZM468.214 207.053V189.313H470.174V207.053H468.214ZM484.974 189.333H486.934V194.533H489.454V196.153H486.934V202.153H484.974V189.333ZM473.094 198.693C477.174 197.473 479.714 195.133 480.054 192.273H473.834V190.693H482.194C482.194 195.353 479.074 198.693 473.914 200.253L473.094 198.693ZM475.754 206.673V200.853H477.714V205.073H487.654V206.673H475.754ZM499.424 190.813H501.364V193.733C501.364 196.873 503.084 200.113 505.724 201.413L504.524 202.973C502.624 201.973 501.184 200.033 500.424 197.693C499.644 200.193 498.144 202.273 496.124 203.313L494.944 201.713C497.664 200.393 499.424 196.993 499.424 193.733V190.813ZM506.944 207.033V189.333H508.924V196.373H511.704V198.013H508.924V207.033H506.944ZM525.264 189.313H527.244V207.053H525.264V189.313ZM513.284 196.853C513.284 193.053 515.184 190.633 517.844 190.633C520.484 190.633 522.384 193.053 522.384 196.853C522.384 200.693 520.484 203.113 517.844 203.113C515.184 203.113 513.284 200.693 513.284 196.853ZM515.184 196.853C515.184 199.633 516.264 201.333 517.844 201.333C519.404 201.333 520.504 199.633 520.504 196.853C520.504 194.093 519.404 192.413 517.844 192.413C516.264 192.413 515.184 194.093 515.184 196.853Z" fill="white"/>
<path d="M429.12 272.749C430.42 273.509 431.2 274.929 431.2 276.149C431.2 278.609 429.2 280.369 426.34 280.369C423.52 280.369 421.52 278.589 421.52 276.069H423.42C423.42 277.609 424.62 278.689 426.34 278.689C428.1 278.689 429.34 277.609 429.34 276.069C429.34 274.589 428.12 273.549 426.38 273.549H425.34V271.929H426.4C428 271.929 429.12 270.969 429.12 269.629C429.12 268.249 428.04 267.289 426.48 267.289C424.92 267.289 423.84 268.269 423.84 269.649H421.94C421.94 267.269 423.82 265.609 426.48 265.609C429.12 265.609 430.98 267.249 430.98 269.569C430.98 270.669 430.3 271.989 429.12 272.749ZM437.439 265.549H439.419V268.469C439.419 271.729 441.259 274.989 444.019 276.229L442.859 277.809C440.839 276.829 439.279 274.869 438.459 272.469C437.639 275.049 436.079 277.149 433.959 278.169L432.779 276.549C435.559 275.269 437.439 271.869 437.439 268.469V265.549ZM445.499 281.789V264.049H447.459V281.789H445.499ZM462.259 264.069H464.219V269.269H466.739V270.889H464.219V276.889H462.259V264.069ZM450.379 273.429C454.459 272.209 456.999 269.869 457.339 267.009H451.119V265.429H459.479C459.479 270.089 456.359 273.429 451.199 274.989L450.379 273.429ZM453.039 281.409V275.589H454.999V279.809H464.939V281.409H453.039ZM485.069 264.049H487.049V281.789H485.069V264.049ZM473.089 271.589C473.089 267.789 474.989 265.369 477.649 265.369C480.289 265.369 482.189 267.789 482.189 271.589C482.189 275.429 480.289 277.849 477.649 277.849C474.989 277.849 473.089 275.429 473.089 271.589ZM474.989 271.589C474.989 274.369 476.069 276.069 477.649 276.069C479.209 276.069 480.309 274.369 480.309 271.589C480.309 268.829 479.209 267.149 477.649 267.149C476.069 267.149 474.989 268.829 474.989 271.589ZM494.15 265.009H496.09V266.889C496.09 269.189 497.65 271.329 500.27 272.209L499.25 273.729C497.35 273.069 495.93 271.709 495.15 270.009C494.41 271.949 492.93 273.489 490.89 274.249L489.83 272.689C492.61 271.709 494.15 269.309 494.15 266.729V265.009ZM492.23 278.449C492.23 276.369 494.47 275.169 498.11 275.169C501.75 275.169 503.99 276.369 503.99 278.449C503.99 280.529 501.75 281.749 498.11 281.749C494.47 281.749 492.23 280.529 492.23 278.449ZM494.15 278.449C494.15 279.589 495.63 280.229 498.11 280.229C500.59 280.229 502.05 279.589 502.05 278.449C502.05 277.329 500.59 276.689 498.11 276.689C495.63 276.689 494.15 277.329 494.15 278.449ZM501.83 274.709V264.069H503.79V268.469H506.31V270.109H503.79V274.709H501.83Z" fill="white"/>
<ellipse cx="386.885" cy="51.1142" rx="9.8855" ry="9.1142" fill="#FF37F7"/>
<ellipse cx="386.885" cy="125.851" rx="9.8855" ry="9.1142" fill="#D1E655"/>
<ellipse cx="386.885" cy="200.587" rx="9.8855" ry="9.1142" fill="#A3A3A3"/>
<ellipse cx="386.885" cy="275.323" rx="9.8855" ry="9.1142" fill="#FF37F7"/>
</svg>
