<svg width="664" height="319" viewBox="0 0 664 319" fill="none" xmlns="http://www.w3.org/2000/svg">
<path d="M4.43741e-05 159.395C4.25544e-05 180.209 4.09977 200.82 12.0651 220.05C20.0305 239.28 31.7055 256.753 46.4236 271.471C61.1417 286.189 78.6146 297.864 97.8447 305.829C117.075 313.795 137.686 317.895 158.5 317.895C179.315 317.895 199.925 313.795 219.155 305.829C238.385 297.864 255.858 286.189 270.576 271.471C285.295 256.753 296.97 239.28 304.935 220.05C312.9 200.82 317 180.209 317 159.395L237.75 159.395C237.75 169.802 235.7 180.107 231.717 189.722C227.735 199.337 221.897 208.074 214.538 215.433C207.179 222.792 198.443 228.629 188.828 232.612C179.213 236.595 168.907 238.645 158.5 238.645C148.093 238.645 137.787 236.595 128.172 232.612C118.557 228.629 109.821 222.792 102.462 215.433C95.1028 208.074 89.2653 199.337 85.2826 189.722C81.2999 180.107 79.25 169.802 79.25 159.395L4.43741e-05 159.395Z" fill="#FF37F7"/>
<path d="M317 159.395C317 138.58 312.9 117.969 304.935 98.7392C296.969 79.5091 285.294 62.0362 270.576 47.3181C255.858 32.6 238.385 20.925 219.155 12.9596C199.925 4.99425 179.314 0.89453 158.5 0.894531V80.1445C168.907 80.1445 179.213 82.1944 188.828 86.1771C198.443 90.1597 207.179 95.9973 214.538 103.356C221.897 110.715 227.735 119.452 231.717 129.067C235.7 138.682 237.75 148.987 237.75 159.395H317Z" fill="#5A20FF"/>
<path d="M158.5 0.894585C124.311 0.894587 91.0378 11.9496 63.6466 32.41L111.073 95.9023C124.769 85.6721 141.405 80.1446 158.5 80.1446L158.5 0.894585Z" fill="#CBCBCB"/>
<path d="M4.71786e-05 159.395C4.49859e-05 134.312 5.9528 109.588 17.3689 87.254C28.7851 64.9202 45.3387 45.6146 65.669 30.9242L112.084 95.1594C101.919 102.505 93.6426 112.157 87.9345 123.324C82.2264 134.491 79.25 146.853 79.25 159.395L4.71786e-05 159.395Z" fill="#E4FF40"/>
<path d="M592.783 196.997V211.497L590.883 211.477V199.057L588.443 200.517L587.583 198.957L590.903 196.997H592.783ZM601.65 196.997V211.497L599.75 211.477V199.057L597.31 200.517L596.45 198.957L599.77 196.997H601.65ZM605.937 209.537C606.617 209.537 607.077 210.017 607.077 210.677C607.077 211.377 606.617 211.857 605.937 211.857C605.237 211.857 604.757 211.377 604.757 210.677C604.757 210.017 605.237 209.537 605.937 209.537ZM618.505 196.977V205.977H620.445V207.637H618.505V211.497H616.605V207.637H610.325L610.125 205.977L616.685 196.977H618.505ZM612.405 205.977H616.605V200.177L612.405 205.977ZM631.178 211.517L640.318 196.917H642.318L633.138 211.517H631.178ZM627.818 200.637C627.818 198.417 629.518 196.677 631.698 196.677C633.838 196.677 635.558 198.417 635.558 200.637C635.558 202.877 633.838 204.617 631.698 204.617C629.518 204.617 627.818 202.877 627.818 200.637ZM629.658 200.637C629.658 201.857 630.538 202.817 631.698 202.817C632.838 202.817 633.738 201.857 633.738 200.637C633.738 199.437 632.838 198.477 631.698 198.477C630.538 198.477 629.658 199.437 629.658 200.637ZM637.758 207.697C637.758 205.457 639.458 203.717 641.638 203.717C643.778 203.717 645.498 205.457 645.498 207.697C645.498 209.917 643.778 211.677 641.638 211.677C639.458 211.677 637.758 209.917 637.758 207.697ZM639.598 207.697C639.598 208.897 640.478 209.857 641.638 209.857C642.778 209.857 643.678 208.897 643.678 207.697C643.678 206.477 642.778 205.537 641.638 205.537C640.478 205.537 639.598 206.477 639.598 207.697Z" fill="white"/>
<path d="M580.342 284.066C583.242 281.266 587.342 278.206 587.342 275.706C587.342 273.986 586.262 272.766 584.702 272.766C583.542 272.766 582.362 273.626 581.822 274.846L580.142 274.126C580.922 272.306 582.822 271.046 584.702 271.046C587.382 271.046 589.242 272.966 589.242 275.706C589.242 278.766 585.742 281.646 582.982 284.066H589.482V285.726H580.542L580.342 284.066ZM596.448 284.206C598.248 284.206 599.528 282.906 599.528 281.066C599.528 279.206 598.248 277.886 596.448 277.886C594.668 277.886 593.428 279.206 593.428 281.066C593.428 282.906 594.668 284.206 596.448 284.206ZM591.528 281.066C591.528 280.026 591.888 279.086 592.308 278.326L596.348 271.186H598.528L595.588 276.326C595.868 276.266 596.188 276.226 596.508 276.226C599.388 276.246 601.428 278.226 601.428 281.066C601.428 283.886 599.388 285.866 596.468 285.866C593.568 285.866 591.528 283.886 591.528 281.066ZM604.741 283.766C605.421 283.766 605.881 284.246 605.881 284.906C605.881 285.606 605.421 286.086 604.741 286.086C604.041 286.086 603.561 285.606 603.561 284.906C603.561 284.246 604.041 283.766 604.741 283.766ZM617.31 271.206V280.206H619.25V281.866H617.31V285.726H615.41V281.866H609.13L608.93 280.206L615.49 271.206H617.31ZM611.21 280.206H615.41V274.406L611.21 280.206ZM629.983 285.746L639.123 271.146H641.123L631.943 285.746H629.983ZM626.623 274.866C626.623 272.646 628.323 270.906 630.503 270.906C632.643 270.906 634.363 272.646 634.363 274.866C634.363 277.106 632.643 278.846 630.503 278.846C628.323 278.846 626.623 277.106 626.623 274.866ZM628.463 274.866C628.463 276.086 629.343 277.046 630.503 277.046C631.643 277.046 632.543 276.086 632.543 274.866C632.543 273.666 631.643 272.706 630.503 272.706C629.343 272.706 628.463 273.666 628.463 274.866ZM636.563 281.926C636.563 279.686 638.263 277.946 640.443 277.946C642.583 277.946 644.303 279.686 644.303 281.926C644.303 284.146 642.583 285.906 640.443 285.906C638.263 285.906 636.563 284.146 636.563 281.926ZM638.403 281.926C638.403 283.126 639.283 284.086 640.443 284.086C641.583 284.086 642.483 283.126 642.483 281.926C642.483 280.706 641.583 279.766 640.443 279.766C639.283 279.766 638.403 280.706 638.403 281.926Z" fill="white"/>
<path d="M581.376 56.42L579.476 56.16L579.956 48.52H587.556V50.18H581.776L581.536 54.04C582.216 53.7 582.996 53.5 583.696 53.5C586.656 53.5 588.736 55.5 588.736 58.34C588.736 61.22 586.656 63.24 583.696 63.24C581.376 63.24 579.396 61.68 578.876 59.48L580.716 59.06C581.036 60.46 582.256 61.46 583.696 61.46C585.536 61.46 586.836 60.16 586.836 58.34C586.836 56.56 585.536 55.28 583.696 55.28C582.916 55.28 581.956 55.76 581.376 56.42ZM596.13 61.5C598.19 61.5 599.59 59.16 599.59 55.78C599.59 52.38 598.19 50.06 596.13 50.06C594.07 50.06 592.67 52.38 592.67 55.78C592.67 59.16 594.07 61.5 596.13 61.5ZM590.77 55.78C590.77 51.44 592.99 48.38 596.13 48.38C599.27 48.38 601.49 51.44 601.49 55.78C601.49 60.12 599.27 63.18 596.13 63.18C592.99 63.18 590.77 60.12 590.77 55.78ZM604.804 61.08C605.484 61.08 605.944 61.56 605.944 62.22C605.944 62.92 605.484 63.4 604.804 63.4C604.104 63.4 603.624 62.92 603.624 62.22C603.624 61.56 604.104 61.08 604.804 61.08ZM613.973 50.02C612.153 50.02 610.893 51.32 610.893 53.18C610.893 55.04 612.153 56.34 613.973 56.34C615.733 56.34 616.993 55.04 616.993 53.18C616.993 51.32 615.733 50.02 613.973 50.02ZM608.993 53.18C608.993 50.34 611.033 48.36 613.933 48.36C616.853 48.36 618.893 50.34 618.893 53.18C618.893 54.22 618.533 55.16 618.113 55.92L614.073 63.06H611.893L614.833 57.9C614.533 57.96 614.233 58 613.913 58C611.013 58 608.993 56 608.993 53.18ZM629.616 63.06L638.756 48.46H640.756L631.576 63.06H629.616ZM626.256 52.18C626.256 49.96 627.956 48.22 630.136 48.22C632.276 48.22 633.996 49.96 633.996 52.18C633.996 54.42 632.276 56.16 630.136 56.16C627.956 56.16 626.256 54.42 626.256 52.18ZM628.096 52.18C628.096 53.4 628.976 54.36 630.136 54.36C631.276 54.36 632.176 53.4 632.176 52.18C632.176 50.98 631.276 50.02 630.136 50.02C628.976 50.02 628.096 50.98 628.096 52.18ZM636.196 59.24C636.196 57 637.896 55.26 640.076 55.26C642.216 55.26 643.936 57 643.936 59.24C643.936 61.46 642.216 63.22 640.076 63.22C637.896 63.22 636.196 61.46 636.196 59.24ZM638.036 59.24C638.036 60.44 638.916 61.4 640.076 61.4C641.216 61.4 642.116 60.44 642.116 59.24C642.116 58.02 641.216 57.08 640.076 57.08C638.916 57.08 638.036 58.02 638.036 59.24Z" fill="white"/>
<path d="M594.057 122.769V137.269L592.157 137.249V124.829L589.717 126.289L588.857 124.729L592.177 122.769H594.057ZM602.924 122.769V137.269L601.024 137.249V124.829L598.584 126.289L597.724 124.729L601.044 122.769H602.924ZM607.21 135.309C607.89 135.309 608.35 135.789 608.35 136.449C608.35 137.149 607.89 137.629 607.21 137.629C606.51 137.629 606.03 137.149 606.03 136.449C606.03 135.789 606.51 135.309 607.21 135.309ZM618.999 129.769C620.299 130.529 621.079 131.949 621.079 133.169C621.079 135.629 619.079 137.389 616.219 137.389C613.399 137.389 611.399 135.609 611.399 133.089H613.299C613.299 134.629 614.499 135.709 616.219 135.709C617.979 135.709 619.219 134.629 619.219 133.089C619.219 131.609 617.999 130.569 616.259 130.569H615.219V128.949H616.279C617.879 128.949 618.999 127.989 618.999 126.649C618.999 125.269 617.919 124.309 616.359 124.309C614.799 124.309 613.719 125.289 613.719 126.669H611.819C611.819 124.289 613.699 122.629 616.359 122.629C618.999 122.629 620.859 124.269 620.859 126.589C620.859 127.689 620.179 129.009 618.999 129.769ZM631.807 137.289L640.947 122.689H642.947L633.767 137.289H631.807ZM628.447 126.409C628.447 124.189 630.147 122.449 632.327 122.449C634.467 122.449 636.187 124.189 636.187 126.409C636.187 128.649 634.467 130.389 632.327 130.389C630.147 130.389 628.447 128.649 628.447 126.409ZM630.287 126.409C630.287 127.629 631.167 128.589 632.327 128.589C633.467 128.589 634.367 127.629 634.367 126.409C634.367 125.209 633.467 124.249 632.327 124.249C631.167 124.249 630.287 125.209 630.287 126.409ZM638.387 133.469C638.387 131.229 640.087 129.489 642.267 129.489C644.407 129.489 646.127 131.229 646.127 133.469C646.127 135.689 644.407 137.449 642.267 137.449C640.087 137.449 638.387 135.689 638.387 133.469ZM640.227 133.469C640.227 134.669 641.107 135.629 642.267 135.629C643.407 135.629 644.307 134.669 644.307 133.469C644.307 132.249 643.407 131.309 642.267 131.309C641.107 131.309 640.227 132.249 640.227 133.469Z" fill="white"/>
<path d="M430.325 46.3776H432.285V64.0776H430.325V54.9776H426.465V53.3576H430.325V46.3776ZM417.565 59.3176C422.185 57.0376 424.225 53.8776 424.545 49.8376H418.345V48.2376H426.525C426.525 53.4176 424.605 57.8576 418.625 60.8376L417.565 59.3176ZM440.846 47.6176C443.606 47.6176 445.626 49.3776 445.626 51.8576C445.626 54.3576 443.606 56.0976 440.846 56.0976C438.066 56.0976 436.046 54.3576 436.046 51.8576C436.046 49.3776 438.066 47.6176 440.846 47.6176ZM435.206 58.7176C438.386 58.7176 442.826 58.6976 446.626 58.1176L446.766 59.5376C442.846 60.2976 438.586 60.3376 435.446 60.3376L435.206 58.7176ZM437.966 51.8576C437.966 53.3976 439.186 54.4176 440.846 54.4176C442.486 54.4176 443.706 53.3976 443.706 51.8576C443.706 50.2976 442.486 49.3176 440.846 49.3176C439.186 49.3176 437.966 50.2976 437.966 51.8576ZM447.706 64.0976V46.3576H449.666V64.0976H447.706ZM470.456 46.3776H472.316V64.0776H470.456V54.8976H468.396V63.2176H466.536V46.7376H468.396V53.2976H470.456V46.3776ZM457.836 59.4576V48.3376H464.656V59.4576H457.836ZM459.656 57.9176H462.816V49.8776H459.656V57.9176ZM479.676 46.9776C482.336 46.9776 484.316 48.6176 484.316 50.9376C484.316 53.2776 482.336 54.8976 479.676 54.8976C477.016 54.8976 475.056 53.2776 475.056 50.9376C475.056 48.6176 477.016 46.9776 479.676 46.9776ZM476.956 50.9376C476.956 52.3776 478.116 53.2976 479.676 53.2976C481.256 53.2976 482.416 52.3776 482.416 50.9376C482.416 49.5176 481.256 48.5776 479.676 48.5776C478.116 48.5776 476.956 49.5176 476.956 50.9376ZM477.716 57.7176V56.1776H489.296V60.6776H479.676V62.3176H489.816V63.8576H477.756V59.2376H487.336V57.7176H477.716ZM487.316 55.3576V46.3776H489.296V55.3576H487.316Z" fill="white"/>
<path d="M417.665 130.801H433.665V132.401H426.605V138.541H424.645V132.401H417.665V130.801ZM418.545 127.921C421.885 127.461 424.465 125.541 424.565 123.441H419.145V121.861H432.165V123.441H426.785C426.885 125.541 429.445 127.461 432.785 127.921L432.045 129.501C429.165 129.041 426.745 127.621 425.665 125.621C424.605 127.621 422.185 129.041 419.285 129.501L418.545 127.921ZM447.655 129.501C448.955 130.261 449.735 131.681 449.735 132.901C449.735 135.361 447.735 137.121 444.875 137.121C442.055 137.121 440.055 135.341 440.055 132.821H441.955C441.955 134.361 443.155 135.441 444.875 135.441C446.635 135.441 447.875 134.361 447.875 132.821C447.875 131.341 446.655 130.301 444.915 130.301H443.875V128.681H444.935C446.535 128.681 447.655 127.721 447.655 126.381C447.655 125.001 446.575 124.041 445.015 124.041C443.455 124.041 442.375 125.021 442.375 126.401H440.475C440.475 124.021 442.355 122.361 445.015 122.361C447.655 122.361 449.515 124.001 449.515 126.321C449.515 127.421 448.835 128.741 447.655 129.501ZM464.034 120.821H465.994V138.521H464.034V120.821ZM451.554 133.681C452.974 133.681 454.594 133.681 456.274 133.641V131.881C454.274 131.581 452.974 130.381 452.974 128.661C452.974 126.681 454.694 125.361 457.254 125.361C459.814 125.361 461.574 126.681 461.574 128.661C461.574 130.381 460.254 131.581 458.254 131.861V133.561C459.854 133.481 461.474 133.361 462.994 133.161L463.114 134.581C459.234 135.281 455.014 135.301 451.794 135.301L451.554 133.681ZM451.914 124.461V122.901H456.274V120.861H458.254V122.901H462.634V124.461H451.914ZM454.814 128.661C454.814 129.761 455.834 130.441 457.254 130.441C458.714 130.441 459.714 129.761 459.714 128.661C459.714 127.541 458.714 126.861 457.254 126.861C455.834 126.861 454.814 127.541 454.814 128.661ZM486.124 120.801H488.104V138.541H486.124V120.801ZM474.144 128.341C474.144 124.541 476.044 122.121 478.704 122.121C481.344 122.121 483.244 124.541 483.244 128.341C483.244 132.181 481.344 134.601 478.704 134.601C476.044 134.601 474.144 132.181 474.144 128.341ZM476.044 128.341C476.044 131.121 477.124 132.821 478.704 132.821C480.264 132.821 481.364 131.121 481.364 128.341C481.364 125.581 480.264 123.901 478.704 123.901C477.124 123.901 476.044 125.581 476.044 128.341ZM495.204 121.761H497.144V123.641C497.144 125.941 498.704 128.081 501.324 128.961L500.304 130.481C498.404 129.821 496.984 128.461 496.204 126.761C495.464 128.701 493.984 130.241 491.944 131.001L490.884 129.441C493.664 128.461 495.204 126.061 495.204 123.481V121.761ZM493.284 135.201C493.284 133.121 495.524 131.921 499.164 131.921C502.804 131.921 505.044 133.121 505.044 135.201C505.044 137.281 502.804 138.501 499.164 138.501C495.524 138.501 493.284 137.281 493.284 135.201ZM495.204 135.201C495.204 136.341 496.684 136.981 499.164 136.981C501.644 136.981 503.104 136.341 503.104 135.201C503.104 134.081 501.644 133.441 499.164 133.441C496.684 133.441 495.204 134.081 495.204 135.201ZM502.884 131.461V120.821H504.844V125.221H507.364V126.861H504.844V131.461H502.884Z" fill="white"/>
<path d="M417.665 205.246H433.665V206.846H426.605V212.986H424.645V206.846H417.665V205.246ZM418.545 202.366C421.885 201.906 424.465 199.986 424.565 197.886H419.145V196.306H432.165V197.886H426.785C426.885 199.986 429.445 201.906 432.785 202.366L432.045 203.946C429.165 203.486 426.745 202.066 425.665 200.066C424.605 202.066 422.185 203.486 419.285 203.946L418.545 202.366ZM445.115 196.946V211.446L443.215 211.426V199.006L440.775 200.466L439.915 198.906L443.235 196.946H445.115ZM448.442 203.106H457.062V204.986H448.442V203.106ZM459.65 209.786C462.55 206.986 466.65 203.926 466.65 201.426C466.65 199.706 465.57 198.486 464.01 198.486C462.85 198.486 461.67 199.346 461.13 200.566L459.45 199.846C460.23 198.026 462.13 196.766 464.01 196.766C466.69 196.766 468.55 198.686 468.55 201.426C468.55 204.486 465.05 207.366 462.29 209.786H468.79V211.446H459.85L459.65 209.786ZM483.096 195.266H485.056V212.966H483.096V195.266ZM470.616 208.126C472.036 208.126 473.656 208.126 475.336 208.086V206.326C473.336 206.026 472.036 204.826 472.036 203.106C472.036 201.126 473.756 199.806 476.316 199.806C478.876 199.806 480.636 201.126 480.636 203.106C480.636 204.826 479.316 206.026 477.316 206.306V208.006C478.916 207.926 480.536 207.806 482.056 207.606L482.176 209.026C478.296 209.726 474.076 209.746 470.856 209.746L470.616 208.126ZM470.976 198.906V197.346H475.336V195.306H477.316V197.346H481.696V198.906H470.976ZM473.876 203.106C473.876 204.206 474.896 204.886 476.316 204.886C477.776 204.886 478.776 204.206 478.776 203.106C478.776 201.986 477.776 201.306 476.316 201.306C474.896 201.306 473.876 201.986 473.876 203.106Z" fill="white"/>
<path d="M421.865 271.188H423.805V274.108C423.805 277.248 425.525 280.488 428.165 281.788L426.965 283.348C425.065 282.348 423.625 280.408 422.865 278.068C422.085 280.568 420.585 282.648 418.565 283.688L417.385 282.088C420.105 280.768 421.865 277.368 421.865 274.108V271.188ZM429.385 287.408V269.708H431.365V276.748H434.145V278.388H431.365V287.408H429.385ZM435.146 278.328H438.946V275.968C437.606 275.408 436.846 274.508 436.846 273.348C436.846 271.248 439.286 270.008 443.146 270.008C447.006 270.008 449.446 271.248 449.446 273.348C449.446 274.528 448.666 275.428 447.306 275.988V278.328H451.126V279.888H435.146V278.328ZM437.026 284.228C437.026 282.208 439.326 281.068 443.126 281.068C446.926 281.068 449.206 282.208 449.206 284.228C449.206 286.268 446.926 287.408 443.126 287.408C439.326 287.408 437.026 286.268 437.026 284.228ZM438.866 273.348C438.866 274.508 440.466 275.168 443.146 275.168C445.806 275.168 447.406 274.508 447.406 273.348C447.406 272.188 445.806 271.528 443.146 271.528C440.466 271.528 438.866 272.188 438.866 273.348ZM439.006 284.228C439.006 285.308 440.486 285.888 443.126 285.888C445.746 285.888 447.226 285.308 447.226 284.228C447.226 283.148 445.746 282.568 443.126 282.568C440.486 282.568 439.006 283.148 439.006 284.228ZM440.906 278.328H445.366V276.508C444.686 276.608 443.946 276.668 443.146 276.668C442.326 276.668 441.586 276.608 440.906 276.508V278.328ZM464.386 269.708H466.346V276.848H469.106V278.488H466.346V287.408H464.386V269.708ZM452.526 274.048V272.448H456.786V269.948H458.766V272.448H462.946V274.048H452.526ZM453.406 279.468C453.406 277.028 455.286 275.348 457.786 275.348C460.326 275.348 462.166 277.028 462.166 279.468C462.166 281.888 460.326 283.588 457.786 283.588C455.286 283.588 453.406 281.888 453.406 279.468ZM455.306 279.468C455.306 280.968 456.326 281.968 457.786 281.968C459.226 281.968 460.286 280.968 460.286 279.468C460.286 277.948 459.226 276.948 457.786 276.948C456.326 276.948 455.306 277.948 455.306 279.468ZM470.647 271.468H480.567V273.108H476.587V274.888C476.587 277.828 478.467 280.868 481.187 282.048L480.087 283.608C478.047 282.668 476.447 280.748 475.627 278.428C474.807 280.908 473.207 283.048 471.147 284.028L470.027 282.488C472.727 281.208 474.607 277.908 474.607 274.888V273.108H470.647V271.468ZM482.667 287.408V269.708H484.627V287.408H482.667ZM497.057 270.648C499.737 270.648 501.697 272.348 501.697 274.748C501.697 277.168 499.737 278.868 497.057 278.868C494.437 278.868 492.457 277.168 492.457 274.748C492.457 272.348 494.437 270.648 497.057 270.648ZM493.937 286.948V280.328H495.837V285.328C496.877 285.268 498.017 285.128 499.077 284.748L499.397 286.328C497.797 286.868 496.237 286.948 494.837 286.948H493.937ZM494.357 274.748C494.357 276.248 495.517 277.248 497.057 277.248C498.637 277.248 499.797 276.248 499.797 274.748C499.797 273.268 498.637 272.268 497.057 272.268C495.517 272.268 494.357 273.268 494.357 274.748ZM498.757 281.828V280.408H502.237V278.948H504.157V280.408H507.617V281.828H498.757ZM499.877 284.908C499.877 283.388 501.237 282.408 503.197 282.408C505.137 282.408 506.517 283.388 506.517 284.908C506.517 286.428 505.137 287.388 503.197 287.388C501.237 287.388 499.877 286.428 499.877 284.908ZM501.617 284.908C501.617 285.608 502.257 286.048 503.197 286.048C504.117 286.048 504.777 285.608 504.777 284.908C504.777 284.188 504.117 283.768 503.197 283.768C502.257 283.768 501.617 284.188 501.617 284.908ZM504.037 278.468V269.708H505.997V273.568H508.517V275.188H505.997V278.468H504.037ZM517.677 270.088C521.537 270.088 523.977 271.348 523.977 273.468C523.977 275.588 521.537 276.848 517.677 276.848C513.817 276.848 511.377 275.588 511.377 273.468C511.377 271.348 513.817 270.088 517.677 270.088ZM509.677 279.748V278.168H525.657V279.748H509.677ZM511.597 287.188V281.288H523.717V287.188H511.597ZM513.397 273.468C513.397 274.648 514.997 275.308 517.677 275.308C520.337 275.308 521.937 274.648 521.937 273.468C521.937 272.268 520.337 271.628 517.677 271.628C514.997 271.628 513.397 272.268 513.397 273.468ZM513.517 285.628H521.797V282.848H513.517V285.628Z" fill="white"/>
<circle cx="386.078" cy="56.0785" r="9.07848" fill="#FF37F7"/>
<circle cx="386.078" cy="130.524" r="9.07848" fill="#D1E555"/>
<circle cx="386.078" cy="204.965" r="9.07848" fill="#A3A3A3"/>
<circle cx="386.078" cy="279.411" r="9.07848" fill="#FF37F7"/>
</svg>
