<svg width="428" height="113" viewBox="0 0 428 113" fill="none" xmlns="http://www.w3.org/2000/svg">
<g filter="url(#filter0_d_3586_357)">
<path fill-rule="evenodd" clip-rule="evenodd" d="M8 58.768V59.936H29H30.68H75.2H76.88H97.88V58.768H76.88H75.2H30.68H29H8ZM29 54.8127H30.68H75.2H76.88H97.88V53.6447H76.88H75.2H30.68H29H8V54.8127H29ZM8 48.6545V49.8225H29H30.68H75.2H76.88H97.88V48.6545H76.88H75.2H30.68H29H8ZM75.2 44.8332V43.6652H97.88V44.8332H75.2ZM121.066 48.6545V49.8225H141.926H143.606H189.106V48.6545H143.606H141.926H121.066ZM143.606 44.8332H121.066V43.6652H143.606V44.8332ZM214.992 48.6545V49.8225H237.672V48.6545H214.992ZM237.672 44.8332H214.992V43.6652H237.672V44.8332ZM276.603 48.6545C276.521 49.0518 276.426 49.4412 276.319 49.8225H299.634C299.684 49.4363 299.729 49.047 299.768 48.6545H276.603ZM299.97 44.8332H277.009C277.011 44.7007 277.012 44.5675 277.012 44.4336C277.012 44.1747 277.008 43.9186 277 43.6652H299.966C299.97 43.9201 299.972 44.1762 299.972 44.4336C299.972 44.5671 299.972 44.7003 299.97 44.8332ZM312.529 48.6545C312.464 49.042 312.403 49.4313 312.347 49.8225H335.571C335.656 49.4294 335.749 49.0401 335.848 48.6545H312.529ZM337.108 44.8332H313.324C313.422 44.4419 313.524 44.0525 313.631 43.6652H337.632C337.451 44.049 337.276 44.4383 337.108 44.8332ZM394.885 48.6545C394.991 49.0401 395.089 49.4294 395.18 49.8225H418.446C418.388 49.431 418.325 49.0417 418.259 48.6545H394.885ZM417.44 44.8332H393.562C393.404 44.4383 393.238 44.049 393.065 43.6652H417.123C417.234 44.0522 417.339 44.4415 417.44 44.8332ZM415.378 38.6769C415.539 39.0636 415.695 39.4529 415.846 39.8449H390.994C390.739 39.4482 390.474 39.0589 390.2 38.6769H415.378ZM412.977 33.6866C413.189 34.0725 413.396 34.4618 413.599 34.8546H386.908C386.504 34.4512 386.09 34.0619 385.664 33.6866H412.977ZM409.832 28.6964C410.108 29.0816 410.38 29.4709 410.645 29.8644H380.03C379.24 29.4609 378.424 29.0906 377.581 28.7536C377.533 28.7344 377.485 28.7153 377.437 28.6964H409.832ZM405.716 23.7071C406.078 24.0914 406.434 24.4807 406.782 24.8751H323.881C324.229 24.4807 324.585 24.0914 324.947 23.7071H405.716ZM400.317 18.7169C400.793 19.0974 401.262 19.4868 401.723 19.8849H328.973C329.442 19.4868 329.918 19.0974 330.401 18.7169H400.317ZM392.719 13.7285C393.422 14.1036 394.113 14.4929 394.791 14.8965H335.985C336.668 14.4929 337.363 14.1036 338.069 13.7285H392.719ZM379.461 8.73926C380.897 9.07417 382.305 9.4635 383.685 9.90726H347.154C348.547 9.4635 349.965 9.07417 351.406 8.73926H379.461ZM269.39 9.90726C265.686 9.21815 261.694 8.87359 257.412 8.87359H214.992V9.90726H269.39ZM195.126 9.90726V8.87359H121.066V9.90726H195.126ZM121.066 13.7285H195.126V14.8965H121.066V13.7285ZM97.88 9.90726V8.87359H75.2V9.90726H97.88ZM75.2 13.7285H97.88V14.8965H75.2V13.7285ZM30.68 9.90726V8.87359H8V9.90726H30.68ZM8 44.8332H30.68V43.6652H8V44.8332ZM30.68 39.8449H8V38.6769H30.68V39.8449ZM75.2 39.8449H97.88V38.6769H75.2V39.8449ZM75.2 34.8546H97.88V33.6866H75.2V34.8546ZM30.68 29.8644H8V28.6964H30.68V29.8644ZM75.2 29.8644H97.88V28.6964H75.2V29.8644ZM75.2 24.8751H97.88V23.7071H75.2V24.8751ZM30.68 19.8849H8V18.7169H30.68V19.8849ZM75.2 19.8849H97.88V18.7169H75.2V19.8849ZM121.066 18.7169V19.8849H195.126V18.7169H121.066ZM214.992 18.7169V19.8849H234.576H237.672H290.239C289.822 19.485 289.393 19.0956 288.952 18.7169H237.672H235.668H214.992ZM283.465 14.8965C282.737 14.4874 281.987 14.0981 281.213 13.7285H214.992V14.8965H283.465ZM293.618 23.7071H237.672H231.002H214.992V24.8751H229.91H237.672H294.448C294.18 24.4786 293.903 24.0892 293.618 23.7071ZM296.651 28.6964H266.055C267.072 29.0253 268.018 29.4146 268.892 29.8644H297.185C297.015 29.4704 296.837 29.0811 296.651 28.6964ZM298.549 33.6866H273.629C273.932 34.0616 274.215 34.451 274.478 34.8546H298.862C298.764 34.4614 298.66 34.0721 298.549 33.6866ZM317.064 34.8546C317.266 34.4618 317.474 34.0725 317.686 33.6866H345.182C344.747 34.0619 344.322 34.4512 343.906 34.8546H317.064ZM299.593 38.6769H276.231C276.345 39.0574 276.447 39.4467 276.536 39.8449H299.735C299.694 39.4522 299.646 39.0629 299.593 38.6769ZM314.858 39.8449C315.002 39.4534 315.151 39.064 315.305 38.6769H340.582C340.303 39.0589 340.034 39.4482 339.773 39.8449H314.858ZM237.672 39.8449V38.6769H214.992V39.8449H237.672ZM143.606 39.8449V38.6769H121.066V39.8449H143.606ZM121.066 34.8546H143.606V33.6866H121.066V34.8546ZM121.066 29.8644H143.606V28.6964H121.066V29.8644ZM121.066 24.8751H195.126V23.7071H121.066V24.8751ZM214.992 28.6964V29.8644H237.672V28.6964H214.992ZM237.672 33.6866H214.992V34.8546H237.672V33.6866ZM350.821 29.8644H320.018C320.283 29.4709 320.554 29.0816 320.831 28.6964H353.365C353.317 28.7153 353.269 28.7344 353.221 28.7536C352.4 29.0906 351.6 29.4609 350.821 29.8644ZM30.68 14.8965H8V13.7285H30.68V14.8965ZM30.68 23.7071V24.8751H8V23.7071H30.68ZM30.68 33.6866V34.8546H8V33.6866H30.68ZM418.868 53.6447H395.832C395.875 54.0308 395.912 54.4202 395.943 54.8127H418.942C418.921 54.4214 418.896 54.0321 418.868 53.6447ZM419.015 58.768H396.052C396.043 59.1604 396.028 59.5497 396.008 59.936H418.985C418.999 59.5481 419.009 59.1588 419.015 58.768ZM418.715 63.7582H395.606C395.542 64.1511 395.472 64.5404 395.396 64.9262H418.578C418.628 64.5385 418.673 64.1492 418.715 63.7582ZM417.937 68.7475H394.381C394.249 69.141 394.108 69.5303 393.96 69.9155H417.681C417.771 69.5279 417.856 69.1386 417.937 68.7475ZM416.628 73.7358H392.258C392.05 74.1316 391.833 74.5209 391.608 74.9038H416.237C416.372 74.5164 416.502 74.127 416.628 73.7358ZM414.715 78.7261H388.915C388.582 79.1244 388.236 79.5137 387.88 79.8941H414.168C414.354 79.508 414.537 79.1187 414.715 78.7261ZM412.109 83.7163H383.494C382.913 84.1273 382.316 84.5167 381.704 84.8843H411.391C411.635 84.4988 411.875 84.1095 412.109 83.7163ZM408.698 88.7056H371.527C369.573 89.0576 367.531 89.2336 365.401 89.2336C363.272 89.2336 361.219 89.0576 359.243 88.7056H322.02C322.324 89.0995 322.635 89.4889 322.952 89.8736H407.758C408.077 89.4889 408.391 89.0995 408.698 88.7056ZM404.225 93.6958H326.451C326.6 93.8425 326.75 93.9885 326.901 94.1336C327.163 94.38 327.427 94.6234 327.693 94.8638H402.983C403.197 94.669 403.41 94.4723 403.621 94.2736C403.824 94.0824 404.025 93.8898 404.225 93.6958ZM398.203 98.6842H332.485C333.055 99.0847 333.635 99.474 334.224 99.8522H396.461C397.052 99.4738 397.632 99.0845 398.203 98.6842ZM389.338 103.673H341.329C342.197 104.06 343.081 104.426 343.981 104.774C344.041 104.796 344.101 104.819 344.161 104.841H386.507C386.565 104.819 386.623 104.796 386.681 104.774C387.584 104.426 388.469 104.059 389.338 103.673ZM300.376 104.841L299.562 103.673H275.087L275.892 104.841H300.376ZM237.672 104.841V103.673H214.992V104.841H237.672ZM196.946 104.841V103.673H121.066V104.841H196.946ZM97.88 104.841V103.673H75.2V104.841H97.88ZM30.68 104.841V103.673H8V104.841H30.68ZM8 99.8522H30.68V98.6842H8V99.8522ZM8 94.8638H30.68V93.6958H8V94.8638ZM8 89.8736H30.68V88.7056H8V89.8736ZM8 84.8843H30.68V83.7163H8V84.8843ZM8 79.8941H30.68V78.7261H8V79.8941ZM8 74.9038H30.68V73.7358H8V74.9038ZM8 69.9155H30.68V68.7475H8V69.9155ZM8 64.9262H29H30.68H75.2H76.88H97.88V63.7582H76.88H75.2H30.68H29H8V64.9262ZM121.066 63.7582V64.9262H141.926H143.606H189.106V63.7582H143.606H141.926H121.066ZM141.926 59.936H143.606H189.106V58.768H143.606H141.926H121.066V59.936H141.926ZM121.066 54.8127H141.926H143.606H189.106V53.6447H143.606H141.926H121.066V54.8127ZM214.992 53.6447V54.8127H237.672V53.6447H214.992ZM274.671 53.6447C274.426 54.0465 274.163 54.4358 273.88 54.8127H298.623C298.732 54.4271 298.833 54.0377 298.928 53.6447H274.671ZM311.933 53.6447C311.905 54.0324 311.88 54.4217 311.86 54.8127H334.853C334.882 54.4202 334.917 54.0308 334.958 53.6447H311.933ZM334.751 58.768H311.788C311.794 59.159 311.803 59.5483 311.817 59.936H334.793C334.773 59.5491 334.759 59.1598 334.751 58.768ZM335.181 63.7582H312.078C312.119 64.1493 312.163 64.5387 312.212 64.9262H335.381C335.308 64.5396 335.241 64.1503 335.181 63.7582ZM336.335 68.7475H312.836C312.915 69.1387 312.998 69.5281 313.086 69.9155H336.725C336.587 69.5293 336.457 69.1399 336.335 68.7475ZM338.461 73.7358H314.119C314.242 74.1273 314.37 74.5166 314.503 74.9038H339.121C338.894 74.5209 338.674 74.1316 338.461 73.7358ZM341.794 78.7261H316.012C316.191 79.1187 316.374 79.508 316.562 79.8941H342.803C342.457 79.5137 342.12 79.1244 341.794 78.7261ZM347.169 83.7163H318.623C318.857 84.1095 319.096 84.4988 319.34 84.8843H348.959C348.347 84.5167 347.75 84.1273 347.169 83.7163ZM286.469 84.8843L285.655 83.7163H261.337L262.142 84.8843H286.469ZM237.672 84.8843V83.7163H214.992V84.8843H237.672ZM214.992 88.7056H237.672V89.8736H214.992V88.7056ZM143.606 84.8843V83.7163H121.066V84.8843H143.606ZM121.066 88.7056H196.946V89.8736H121.066V88.7056ZM97.88 84.8843V83.7163H75.2V84.8843H97.88ZM75.2 88.7056H97.88V89.8736H75.2V88.7056ZM75.2 93.6958V94.8638H97.88V93.6958H75.2ZM121.066 93.6958V94.8638H196.946V93.6958H121.066ZM214.992 93.6958V94.8638H237.672V93.6958H214.992ZM268.213 93.6958L269.018 94.8638H293.423L292.609 93.6958H268.213ZM289.946 89.8736L289.132 88.7056H264.775L265.58 89.8736H289.946ZM296.085 98.6842H271.65L272.455 99.8522H296.899L296.085 98.6842ZM237.672 99.8522V98.6842H214.992V99.8522H237.672ZM196.946 99.8522V98.6842H121.066V99.8522H196.946ZM97.88 99.8522V98.6842H75.2V99.8522H97.88ZM75.2 79.8941H97.88V78.7261H75.2V79.8941ZM75.2 74.9038H97.88V73.7358H75.2V74.9038ZM75.2 69.9155H97.88V68.7475H75.2V69.9155ZM121.066 68.7475V69.9155H143.606V68.7475H121.066ZM214.992 68.7475V69.9155H235.552H237.386H237.672H288.945C289.392 69.5366 289.827 69.1473 290.249 68.7475H237.672H234.445H214.992ZM230.825 64.9262H237.672H293.667C293.955 64.5441 294.235 64.1547 294.507 63.7582H237.672H229.719H214.992V64.9262H230.825ZM214.992 59.936H237.672V58.768H214.992V59.936ZM269.332 58.768C268.532 59.2109 267.668 59.6002 266.741 59.936H296.699C296.884 59.5511 297.061 59.1618 297.23 58.768H269.332ZM283.393 73.7358H278.7H254.461H237.672H233.512H214.992V74.9038H232.328H237.672H255.266H279.514H281.119C281.9 74.5338 282.658 74.1445 283.393 73.7358ZM268.501 78.7261H257.899H237.672H228.452H214.992V79.8941H237.672V79.5736H257.412C257.77 79.5736 258.125 79.5713 258.478 79.5666L258.704 79.8941H282.991L282.178 78.7261H268.501ZM143.606 79.8941V78.7261H121.066V79.8941H143.606ZM121.066 74.9038H143.606V73.7358H121.066V74.9038Z" fill="white"/>
</g>
<g filter="url(#filter1_d_3586_357)">
<path fill-rule="evenodd" clip-rule="evenodd" d="M8 58.768V59.936H29H30.68H75.2H76.88H97.88V58.768H76.88H75.2H30.68H29H8ZM29 54.8127H30.68H75.2H76.88H97.88V53.6447H76.88H75.2H30.68H29H8V54.8127H29ZM8 48.6545V49.8225H29H30.68H75.2H76.88H97.88V48.6545H76.88H75.2H30.68H29H8ZM75.2 44.8332V43.6652H97.88V44.8332H75.2ZM121.066 48.6545V49.8225H141.926H143.606H189.106V48.6545H143.606H141.926H121.066ZM143.606 44.8332H121.066V43.6652H143.606V44.8332ZM214.992 48.6545V49.8225H237.672V48.6545H214.992ZM237.672 44.8332H214.992V43.6652H237.672V44.8332ZM276.603 48.6545C276.521 49.0518 276.426 49.4412 276.319 49.8225H299.634C299.684 49.4363 299.729 49.047 299.768 48.6545H276.603ZM299.97 44.8332H277.009C277.011 44.7007 277.012 44.5675 277.012 44.4336C277.012 44.1747 277.008 43.9186 277 43.6652H299.966C299.97 43.9201 299.972 44.1762 299.972 44.4336C299.972 44.5671 299.972 44.7003 299.97 44.8332ZM312.529 48.6545C312.464 49.042 312.403 49.4313 312.347 49.8225H335.571C335.656 49.4294 335.749 49.0401 335.848 48.6545H312.529ZM337.108 44.8332H313.324C313.422 44.4419 313.524 44.0525 313.631 43.6652H337.632C337.451 44.049 337.276 44.4383 337.108 44.8332ZM394.885 48.6545C394.991 49.0401 395.089 49.4294 395.18 49.8225H418.446C418.388 49.431 418.325 49.0417 418.259 48.6545H394.885ZM417.44 44.8332H393.562C393.404 44.4383 393.238 44.049 393.065 43.6652H417.123C417.234 44.0522 417.339 44.4415 417.44 44.8332ZM415.378 38.6769C415.539 39.0636 415.695 39.4529 415.846 39.8449H390.994C390.739 39.4482 390.474 39.0589 390.2 38.6769H415.378ZM412.977 33.6866C413.189 34.0725 413.396 34.4618 413.599 34.8546H386.908C386.504 34.4512 386.09 34.0619 385.664 33.6866H412.977ZM409.832 28.6964C410.108 29.0816 410.38 29.4709 410.645 29.8644H380.03C379.24 29.4609 378.424 29.0906 377.581 28.7536C377.533 28.7344 377.485 28.7153 377.437 28.6964H409.832ZM405.716 23.7071C406.078 24.0914 406.434 24.4807 406.782 24.8751H323.881C324.229 24.4807 324.585 24.0914 324.947 23.7071H405.716ZM400.317 18.7169C400.793 19.0974 401.262 19.4868 401.723 19.8849H328.973C329.442 19.4868 329.918 19.0974 330.401 18.7169H400.317ZM392.719 13.7285C393.422 14.1036 394.113 14.4929 394.791 14.8965H335.985C336.668 14.4929 337.363 14.1036 338.069 13.7285H392.719ZM379.461 8.73926C380.897 9.07417 382.305 9.4635 383.685 9.90726H347.154C348.547 9.4635 349.965 9.07417 351.406 8.73926H379.461ZM269.39 9.90726C265.686 9.21815 261.694 8.87359 257.412 8.87359H214.992V9.90726H269.39ZM195.126 9.90726V8.87359H121.066V9.90726H195.126ZM121.066 13.7285H195.126V14.8965H121.066V13.7285ZM97.88 9.90726V8.87359H75.2V9.90726H97.88ZM75.2 13.7285H97.88V14.8965H75.2V13.7285ZM30.68 9.90726V8.87359H8V9.90726H30.68ZM8 44.8332H30.68V43.6652H8V44.8332ZM30.68 39.8449H8V38.6769H30.68V39.8449ZM75.2 39.8449H97.88V38.6769H75.2V39.8449ZM75.2 34.8546H97.88V33.6866H75.2V34.8546ZM30.68 29.8644H8V28.6964H30.68V29.8644ZM75.2 29.8644H97.88V28.6964H75.2V29.8644ZM75.2 24.8751H97.88V23.7071H75.2V24.8751ZM30.68 19.8849H8V18.7169H30.68V19.8849ZM75.2 19.8849H97.88V18.7169H75.2V19.8849ZM121.066 18.7169V19.8849H195.126V18.7169H121.066ZM214.992 18.7169V19.8849H234.576H237.672H290.239C289.822 19.485 289.393 19.0956 288.952 18.7169H237.672H235.668H214.992ZM283.465 14.8965C282.737 14.4874 281.987 14.0981 281.213 13.7285H214.992V14.8965H283.465ZM293.618 23.7071H237.672H231.002H214.992V24.8751H229.91H237.672H294.448C294.18 24.4786 293.903 24.0892 293.618 23.7071ZM296.651 28.6964H266.055C267.072 29.0253 268.018 29.4146 268.892 29.8644H297.185C297.015 29.4704 296.837 29.0811 296.651 28.6964ZM298.549 33.6866H273.629C273.932 34.0616 274.215 34.451 274.478 34.8546H298.862C298.764 34.4614 298.66 34.0721 298.549 33.6866ZM317.064 34.8546C317.266 34.4618 317.474 34.0725 317.686 33.6866H345.182C344.747 34.0619 344.322 34.4512 343.906 34.8546H317.064ZM299.593 38.6769H276.231C276.345 39.0574 276.447 39.4467 276.536 39.8449H299.735C299.694 39.4522 299.646 39.0629 299.593 38.6769ZM314.858 39.8449C315.002 39.4534 315.151 39.064 315.305 38.6769H340.582C340.303 39.0589 340.034 39.4482 339.773 39.8449H314.858ZM237.672 39.8449V38.6769H214.992V39.8449H237.672ZM143.606 39.8449V38.6769H121.066V39.8449H143.606ZM121.066 34.8546H143.606V33.6866H121.066V34.8546ZM121.066 29.8644H143.606V28.6964H121.066V29.8644ZM121.066 24.8751H195.126V23.7071H121.066V24.8751ZM214.992 28.6964V29.8644H237.672V28.6964H214.992ZM237.672 33.6866H214.992V34.8546H237.672V33.6866ZM350.821 29.8644H320.018C320.283 29.4709 320.554 29.0816 320.831 28.6964H353.365C353.317 28.7153 353.269 28.7344 353.221 28.7536C352.4 29.0906 351.6 29.4609 350.821 29.8644ZM30.68 14.8965H8V13.7285H30.68V14.8965ZM30.68 23.7071V24.8751H8V23.7071H30.68ZM30.68 33.6866V34.8546H8V33.6866H30.68ZM418.868 53.6447H395.832C395.875 54.0308 395.912 54.4202 395.943 54.8127H418.942C418.921 54.4214 418.896 54.0321 418.868 53.6447ZM419.015 58.768H396.052C396.043 59.1604 396.028 59.5497 396.008 59.936H418.985C418.999 59.5481 419.009 59.1588 419.015 58.768ZM418.715 63.7582H395.606C395.542 64.1511 395.472 64.5404 395.396 64.9262H418.578C418.628 64.5385 418.673 64.1492 418.715 63.7582ZM417.937 68.7475H394.381C394.249 69.141 394.108 69.5303 393.96 69.9155H417.681C417.771 69.5279 417.856 69.1386 417.937 68.7475ZM416.628 73.7358H392.258C392.05 74.1316 391.833 74.5209 391.608 74.9038H416.237C416.372 74.5164 416.502 74.127 416.628 73.7358ZM414.715 78.7261H388.915C388.582 79.1244 388.236 79.5137 387.88 79.8941H414.168C414.354 79.508 414.537 79.1187 414.715 78.7261ZM412.109 83.7163H383.494C382.913 84.1273 382.316 84.5167 381.704 84.8843H411.391C411.635 84.4988 411.875 84.1095 412.109 83.7163ZM408.698 88.7056H371.527C369.573 89.0576 367.531 89.2336 365.401 89.2336C363.272 89.2336 361.219 89.0576 359.243 88.7056H322.02C322.324 89.0995 322.635 89.4889 322.952 89.8736H407.758C408.077 89.4889 408.391 89.0995 408.698 88.7056ZM404.225 93.6958H326.451C326.6 93.8425 326.75 93.9885 326.901 94.1336C327.163 94.38 327.427 94.6234 327.693 94.8638H402.983C403.197 94.669 403.41 94.4723 403.621 94.2736C403.824 94.0824 404.025 93.8898 404.225 93.6958ZM398.203 98.6842H332.485C333.055 99.0847 333.635 99.474 334.224 99.8522H396.461C397.052 99.4738 397.632 99.0845 398.203 98.6842ZM389.338 103.673H341.329C342.197 104.06 343.081 104.426 343.981 104.774C344.041 104.796 344.101 104.819 344.161 104.841H386.507C386.565 104.819 386.623 104.796 386.681 104.774C387.584 104.426 388.469 104.059 389.338 103.673ZM300.376 104.841L299.562 103.673H275.087L275.892 104.841H300.376ZM237.672 104.841V103.673H214.992V104.841H237.672ZM196.946 104.841V103.673H121.066V104.841H196.946ZM97.88 104.841V103.673H75.2V104.841H97.88ZM30.68 104.841V103.673H8V104.841H30.68ZM8 99.8522H30.68V98.6842H8V99.8522ZM8 94.8638H30.68V93.6958H8V94.8638ZM8 89.8736H30.68V88.7056H8V89.8736ZM8 84.8843H30.68V83.7163H8V84.8843ZM8 79.8941H30.68V78.7261H8V79.8941ZM8 74.9038H30.68V73.7358H8V74.9038ZM8 69.9155H30.68V68.7475H8V69.9155ZM8 64.9262H29H30.68H75.2H76.88H97.88V63.7582H76.88H75.2H30.68H29H8V64.9262ZM121.066 63.7582V64.9262H141.926H143.606H189.106V63.7582H143.606H141.926H121.066ZM141.926 59.936H143.606H189.106V58.768H143.606H141.926H121.066V59.936H141.926ZM121.066 54.8127H141.926H143.606H189.106V53.6447H143.606H141.926H121.066V54.8127ZM214.992 53.6447V54.8127H237.672V53.6447H214.992ZM274.671 53.6447C274.426 54.0465 274.163 54.4358 273.88 54.8127H298.623C298.732 54.4271 298.833 54.0377 298.928 53.6447H274.671ZM311.933 53.6447C311.905 54.0324 311.88 54.4217 311.86 54.8127H334.853C334.882 54.4202 334.917 54.0308 334.958 53.6447H311.933ZM334.751 58.768H311.788C311.794 59.159 311.803 59.5483 311.817 59.936H334.793C334.773 59.5491 334.759 59.1598 334.751 58.768ZM335.181 63.7582H312.078C312.119 64.1493 312.163 64.5387 312.212 64.9262H335.381C335.308 64.5396 335.241 64.1503 335.181 63.7582ZM336.335 68.7475H312.836C312.915 69.1387 312.998 69.5281 313.086 69.9155H336.725C336.587 69.5293 336.457 69.1399 336.335 68.7475ZM338.461 73.7358H314.119C314.242 74.1273 314.37 74.5166 314.503 74.9038H339.121C338.894 74.5209 338.674 74.1316 338.461 73.7358ZM341.794 78.7261H316.012C316.191 79.1187 316.374 79.508 316.562 79.8941H342.803C342.457 79.5137 342.12 79.1244 341.794 78.7261ZM347.169 83.7163H318.623C318.857 84.1095 319.096 84.4988 319.34 84.8843H348.959C348.347 84.5167 347.75 84.1273 347.169 83.7163ZM286.469 84.8843L285.655 83.7163H261.337L262.142 84.8843H286.469ZM237.672 84.8843V83.7163H214.992V84.8843H237.672ZM214.992 88.7056H237.672V89.8736H214.992V88.7056ZM143.606 84.8843V83.7163H121.066V84.8843H143.606ZM121.066 88.7056H196.946V89.8736H121.066V88.7056ZM97.88 84.8843V83.7163H75.2V84.8843H97.88ZM75.2 88.7056H97.88V89.8736H75.2V88.7056ZM75.2 93.6958V94.8638H97.88V93.6958H75.2ZM121.066 93.6958V94.8638H196.946V93.6958H121.066ZM214.992 93.6958V94.8638H237.672V93.6958H214.992ZM268.213 93.6958L269.018 94.8638H293.423L292.609 93.6958H268.213ZM289.946 89.8736L289.132 88.7056H264.775L265.58 89.8736H289.946ZM296.085 98.6842H271.65L272.455 99.8522H296.899L296.085 98.6842ZM237.672 99.8522V98.6842H214.992V99.8522H237.672ZM196.946 99.8522V98.6842H121.066V99.8522H196.946ZM97.88 99.8522V98.6842H75.2V99.8522H97.88ZM75.2 79.8941H97.88V78.7261H75.2V79.8941ZM75.2 74.9038H97.88V73.7358H75.2V74.9038ZM75.2 69.9155H97.88V68.7475H75.2V69.9155ZM121.066 68.7475V69.9155H143.606V68.7475H121.066ZM214.992 68.7475V69.9155H235.552H237.386H237.672H288.945C289.392 69.5366 289.827 69.1473 290.249 68.7475H237.672H234.445H214.992ZM230.825 64.9262H237.672H293.667C293.955 64.5441 294.235 64.1547 294.507 63.7582H237.672H229.719H214.992V64.9262H230.825ZM214.992 59.936H237.672V58.768H214.992V59.936ZM269.332 58.768C268.532 59.2109 267.668 59.6002 266.741 59.936H296.699C296.884 59.5511 297.061 59.1618 297.23 58.768H269.332ZM283.393 73.7358H278.7H254.461H237.672H233.512H214.992V74.9038H232.328H237.672H255.266H279.514H281.119C281.9 74.5338 282.658 74.1445 283.393 73.7358ZM268.501 78.7261H257.899H237.672H228.452H214.992V79.8941H237.672V79.5736H257.412C257.77 79.5736 258.125 79.5713 258.478 79.5666L258.704 79.8941H282.991L282.178 78.7261H268.501ZM143.606 79.8941V78.7261H121.066V79.8941H143.606ZM121.066 74.9038H143.606V73.7358H121.066V74.9038Z" fill="white"/>
</g>
<g filter="url(#filter2_d_3586_357)">
<path fill-rule="evenodd" clip-rule="evenodd" d="M8 58.768V59.936H29H30.68H75.2H76.88H97.88V58.768H76.88H75.2H30.68H29H8ZM29 54.8127H30.68H75.2H76.88H97.88V53.6447H76.88H75.2H30.68H29H8V54.8127H29ZM8 48.6545V49.8225H29H30.68H75.2H76.88H97.88V48.6545H76.88H75.2H30.68H29H8ZM75.2 44.8332V43.6652H97.88V44.8332H75.2ZM121.066 48.6545V49.8225H141.926H143.606H189.106V48.6545H143.606H141.926H121.066ZM143.606 44.8332H121.066V43.6652H143.606V44.8332ZM214.992 48.6545V49.8225H237.672V48.6545H214.992ZM237.672 44.8332H214.992V43.6652H237.672V44.8332ZM276.603 48.6545C276.521 49.0518 276.426 49.4412 276.319 49.8225H299.634C299.684 49.4363 299.729 49.047 299.768 48.6545H276.603ZM299.97 44.8332H277.009C277.011 44.7007 277.012 44.5675 277.012 44.4336C277.012 44.1747 277.008 43.9186 277 43.6652H299.966C299.97 43.9201 299.972 44.1762 299.972 44.4336C299.972 44.5671 299.972 44.7003 299.97 44.8332ZM312.529 48.6545C312.464 49.042 312.403 49.4313 312.347 49.8225H335.571C335.656 49.4294 335.749 49.0401 335.848 48.6545H312.529ZM337.108 44.8332H313.324C313.422 44.4419 313.524 44.0525 313.631 43.6652H337.632C337.451 44.049 337.276 44.4383 337.108 44.8332ZM394.885 48.6545C394.991 49.0401 395.089 49.4294 395.18 49.8225H418.446C418.388 49.431 418.325 49.0417 418.259 48.6545H394.885ZM417.44 44.8332H393.562C393.404 44.4383 393.238 44.049 393.065 43.6652H417.123C417.234 44.0522 417.339 44.4415 417.44 44.8332ZM415.378 38.6769C415.539 39.0636 415.695 39.4529 415.846 39.8449H390.994C390.739 39.4482 390.474 39.0589 390.2 38.6769H415.378ZM412.977 33.6866C413.189 34.0725 413.396 34.4618 413.599 34.8546H386.908C386.504 34.4512 386.09 34.0619 385.664 33.6866H412.977ZM409.832 28.6964C410.108 29.0816 410.38 29.4709 410.645 29.8644H380.03C379.24 29.4609 378.424 29.0906 377.581 28.7536C377.533 28.7344 377.485 28.7153 377.437 28.6964H409.832ZM405.716 23.7071C406.078 24.0914 406.434 24.4807 406.782 24.8751H323.881C324.229 24.4807 324.585 24.0914 324.947 23.7071H405.716ZM400.317 18.7169C400.793 19.0974 401.262 19.4868 401.723 19.8849H328.973C329.442 19.4868 329.918 19.0974 330.401 18.7169H400.317ZM392.719 13.7285C393.422 14.1036 394.113 14.4929 394.791 14.8965H335.985C336.668 14.4929 337.363 14.1036 338.069 13.7285H392.719ZM379.461 8.73926C380.897 9.07417 382.305 9.4635 383.685 9.90726H347.154C348.547 9.4635 349.965 9.07417 351.406 8.73926H379.461ZM269.39 9.90726C265.686 9.21815 261.694 8.87359 257.412 8.87359H214.992V9.90726H269.39ZM195.126 9.90726V8.87359H121.066V9.90726H195.126ZM121.066 13.7285H195.126V14.8965H121.066V13.7285ZM97.88 9.90726V8.87359H75.2V9.90726H97.88ZM75.2 13.7285H97.88V14.8965H75.2V13.7285ZM30.68 9.90726V8.87359H8V9.90726H30.68ZM8 44.8332H30.68V43.6652H8V44.8332ZM30.68 39.8449H8V38.6769H30.68V39.8449ZM75.2 39.8449H97.88V38.6769H75.2V39.8449ZM75.2 34.8546H97.88V33.6866H75.2V34.8546ZM30.68 29.8644H8V28.6964H30.68V29.8644ZM75.2 29.8644H97.88V28.6964H75.2V29.8644ZM75.2 24.8751H97.88V23.7071H75.2V24.8751ZM30.68 19.8849H8V18.7169H30.68V19.8849ZM75.2 19.8849H97.88V18.7169H75.2V19.8849ZM121.066 18.7169V19.8849H195.126V18.7169H121.066ZM214.992 18.7169V19.8849H234.576H237.672H290.239C289.822 19.485 289.393 19.0956 288.952 18.7169H237.672H235.668H214.992ZM283.465 14.8965C282.737 14.4874 281.987 14.0981 281.213 13.7285H214.992V14.8965H283.465ZM293.618 23.7071H237.672H231.002H214.992V24.8751H229.91H237.672H294.448C294.18 24.4786 293.903 24.0892 293.618 23.7071ZM296.651 28.6964H266.055C267.072 29.0253 268.018 29.4146 268.892 29.8644H297.185C297.015 29.4704 296.837 29.0811 296.651 28.6964ZM298.549 33.6866H273.629C273.932 34.0616 274.215 34.451 274.478 34.8546H298.862C298.764 34.4614 298.66 34.0721 298.549 33.6866ZM317.064 34.8546C317.266 34.4618 317.474 34.0725 317.686 33.6866H345.182C344.747 34.0619 344.322 34.4512 343.906 34.8546H317.064ZM299.593 38.6769H276.231C276.345 39.0574 276.447 39.4467 276.536 39.8449H299.735C299.694 39.4522 299.646 39.0629 299.593 38.6769ZM314.858 39.8449C315.002 39.4534 315.151 39.064 315.305 38.6769H340.582C340.303 39.0589 340.034 39.4482 339.773 39.8449H314.858ZM237.672 39.8449V38.6769H214.992V39.8449H237.672ZM143.606 39.8449V38.6769H121.066V39.8449H143.606ZM121.066 34.8546H143.606V33.6866H121.066V34.8546ZM121.066 29.8644H143.606V28.6964H121.066V29.8644ZM121.066 24.8751H195.126V23.7071H121.066V24.8751ZM214.992 28.6964V29.8644H237.672V28.6964H214.992ZM237.672 33.6866H214.992V34.8546H237.672V33.6866ZM350.821 29.8644H320.018C320.283 29.4709 320.554 29.0816 320.831 28.6964H353.365C353.317 28.7153 353.269 28.7344 353.221 28.7536C352.4 29.0906 351.6 29.4609 350.821 29.8644ZM30.68 14.8965H8V13.7285H30.68V14.8965ZM30.68 23.7071V24.8751H8V23.7071H30.68ZM30.68 33.6866V34.8546H8V33.6866H30.68ZM418.868 53.6447H395.832C395.875 54.0308 395.912 54.4202 395.943 54.8127H418.942C418.921 54.4214 418.896 54.0321 418.868 53.6447ZM419.015 58.768H396.052C396.043 59.1604 396.028 59.5497 396.008 59.936H418.985C418.999 59.5481 419.009 59.1588 419.015 58.768ZM418.715 63.7582H395.606C395.542 64.1511 395.472 64.5404 395.396 64.9262H418.578C418.628 64.5385 418.673 64.1492 418.715 63.7582ZM417.937 68.7475H394.381C394.249 69.141 394.108 69.5303 393.96 69.9155H417.681C417.771 69.5279 417.856 69.1386 417.937 68.7475ZM416.628 73.7358H392.258C392.05 74.1316 391.833 74.5209 391.608 74.9038H416.237C416.372 74.5164 416.502 74.127 416.628 73.7358ZM414.715 78.7261H388.915C388.582 79.1244 388.236 79.5137 387.88 79.8941H414.168C414.354 79.508 414.537 79.1187 414.715 78.7261ZM412.109 83.7163H383.494C382.913 84.1273 382.316 84.5167 381.704 84.8843H411.391C411.635 84.4988 411.875 84.1095 412.109 83.7163ZM408.698 88.7056H371.527C369.573 89.0576 367.531 89.2336 365.401 89.2336C363.272 89.2336 361.219 89.0576 359.243 88.7056H322.02C322.324 89.0995 322.635 89.4889 322.952 89.8736H407.758C408.077 89.4889 408.391 89.0995 408.698 88.7056ZM404.225 93.6958H326.451C326.6 93.8425 326.75 93.9885 326.901 94.1336C327.163 94.38 327.427 94.6234 327.693 94.8638H402.983C403.197 94.669 403.41 94.4723 403.621 94.2736C403.824 94.0824 404.025 93.8898 404.225 93.6958ZM398.203 98.6842H332.485C333.055 99.0847 333.635 99.474 334.224 99.8522H396.461C397.052 99.4738 397.632 99.0845 398.203 98.6842ZM389.338 103.673H341.329C342.197 104.06 343.081 104.426 343.981 104.774C344.041 104.796 344.101 104.819 344.161 104.841H386.507C386.565 104.819 386.623 104.796 386.681 104.774C387.584 104.426 388.469 104.059 389.338 103.673ZM300.376 104.841L299.562 103.673H275.087L275.892 104.841H300.376ZM237.672 104.841V103.673H214.992V104.841H237.672ZM196.946 104.841V103.673H121.066V104.841H196.946ZM97.88 104.841V103.673H75.2V104.841H97.88ZM30.68 104.841V103.673H8V104.841H30.68ZM8 99.8522H30.68V98.6842H8V99.8522ZM8 94.8638H30.68V93.6958H8V94.8638ZM8 89.8736H30.68V88.7056H8V89.8736ZM8 84.8843H30.68V83.7163H8V84.8843ZM8 79.8941H30.68V78.7261H8V79.8941ZM8 74.9038H30.68V73.7358H8V74.9038ZM8 69.9155H30.68V68.7475H8V69.9155ZM8 64.9262H29H30.68H75.2H76.88H97.88V63.7582H76.88H75.2H30.68H29H8V64.9262ZM121.066 63.7582V64.9262H141.926H143.606H189.106V63.7582H143.606H141.926H121.066ZM141.926 59.936H143.606H189.106V58.768H143.606H141.926H121.066V59.936H141.926ZM121.066 54.8127H141.926H143.606H189.106V53.6447H143.606H141.926H121.066V54.8127ZM214.992 53.6447V54.8127H237.672V53.6447H214.992ZM274.671 53.6447C274.426 54.0465 274.163 54.4358 273.88 54.8127H298.623C298.732 54.4271 298.833 54.0377 298.928 53.6447H274.671ZM311.933 53.6447C311.905 54.0324 311.88 54.4217 311.86 54.8127H334.853C334.882 54.4202 334.917 54.0308 334.958 53.6447H311.933ZM334.751 58.768H311.788C311.794 59.159 311.803 59.5483 311.817 59.936H334.793C334.773 59.5491 334.759 59.1598 334.751 58.768ZM335.181 63.7582H312.078C312.119 64.1493 312.163 64.5387 312.212 64.9262H335.381C335.308 64.5396 335.241 64.1503 335.181 63.7582ZM336.335 68.7475H312.836C312.915 69.1387 312.998 69.5281 313.086 69.9155H336.725C336.587 69.5293 336.457 69.1399 336.335 68.7475ZM338.461 73.7358H314.119C314.242 74.1273 314.37 74.5166 314.503 74.9038H339.121C338.894 74.5209 338.674 74.1316 338.461 73.7358ZM341.794 78.7261H316.012C316.191 79.1187 316.374 79.508 316.562 79.8941H342.803C342.457 79.5137 342.12 79.1244 341.794 78.7261ZM347.169 83.7163H318.623C318.857 84.1095 319.096 84.4988 319.34 84.8843H348.959C348.347 84.5167 347.75 84.1273 347.169 83.7163ZM286.469 84.8843L285.655 83.7163H261.337L262.142 84.8843H286.469ZM237.672 84.8843V83.7163H214.992V84.8843H237.672ZM214.992 88.7056H237.672V89.8736H214.992V88.7056ZM143.606 84.8843V83.7163H121.066V84.8843H143.606ZM121.066 88.7056H196.946V89.8736H121.066V88.7056ZM97.88 84.8843V83.7163H75.2V84.8843H97.88ZM75.2 88.7056H97.88V89.8736H75.2V88.7056ZM75.2 93.6958V94.8638H97.88V93.6958H75.2ZM121.066 93.6958V94.8638H196.946V93.6958H121.066ZM214.992 93.6958V94.8638H237.672V93.6958H214.992ZM268.213 93.6958L269.018 94.8638H293.423L292.609 93.6958H268.213ZM289.946 89.8736L289.132 88.7056H264.775L265.58 89.8736H289.946ZM296.085 98.6842H271.65L272.455 99.8522H296.899L296.085 98.6842ZM237.672 99.8522V98.6842H214.992V99.8522H237.672ZM196.946 99.8522V98.6842H121.066V99.8522H196.946ZM97.88 99.8522V98.6842H75.2V99.8522H97.88ZM75.2 79.8941H97.88V78.7261H75.2V79.8941ZM75.2 74.9038H97.88V73.7358H75.2V74.9038ZM75.2 69.9155H97.88V68.7475H75.2V69.9155ZM121.066 68.7475V69.9155H143.606V68.7475H121.066ZM214.992 68.7475V69.9155H235.552H237.386H237.672H288.945C289.392 69.5366 289.827 69.1473 290.249 68.7475H237.672H234.445H214.992ZM230.825 64.9262H237.672H293.667C293.955 64.5441 294.235 64.1547 294.507 63.7582H237.672H229.719H214.992V64.9262H230.825ZM214.992 59.936H237.672V58.768H214.992V59.936ZM269.332 58.768C268.532 59.2109 267.668 59.6002 266.741 59.936H296.699C296.884 59.5511 297.061 59.1618 297.23 58.768H269.332ZM283.393 73.7358H278.7H254.461H237.672H233.512H214.992V74.9038H232.328H237.672H255.266H279.514H281.119C281.9 74.5338 282.658 74.1445 283.393 73.7358ZM268.501 78.7261H257.899H237.672H228.452H214.992V79.8941H237.672V79.5736H257.412C257.77 79.5736 258.125 79.5713 258.478 79.5666L258.704 79.8941H282.991L282.178 78.7261H268.501ZM143.606 79.8941V78.7261H121.066V79.8941H143.606ZM121.066 74.9038H143.606V73.7358H121.066V74.9038Z" fill="white"/>
</g>
<defs>
<filter id="filter0_d_3586_357" x="0" y="0.739258" width="427.016" height="112.103" filterUnits="userSpaceOnUse" color-interpolation-filters="sRGB">
<feFlood flood-opacity="0" result="BackgroundImageFix"/>
<feColorMatrix in="SourceAlpha" type="matrix" values="0 0 0 0 0 0 0 0 0 0 0 0 0 0 0 0 0 0 127 0" result="hardAlpha"/>
<feOffset/>
<feGaussianBlur stdDeviation="4"/>
<feComposite in2="hardAlpha" operator="out"/>
<feColorMatrix type="matrix" values="0 0 0 0 1 0 0 0 0 1 0 0 0 0 1 0 0 0 0.7 0"/>
<feBlend mode="normal" in2="BackgroundImageFix" result="effect1_dropShadow_3586_357"/>
<feBlend mode="normal" in="SourceGraphic" in2="effect1_dropShadow_3586_357" result="shape"/>
</filter>
<filter id="filter1_d_3586_357" x="0" y="0.739258" width="427.016" height="112.103" filterUnits="userSpaceOnUse" color-interpolation-filters="sRGB">
<feFlood flood-opacity="0" result="BackgroundImageFix"/>
<feColorMatrix in="SourceAlpha" type="matrix" values="0 0 0 0 0 0 0 0 0 0 0 0 0 0 0 0 0 0 127 0" result="hardAlpha"/>
<feOffset/>
<feGaussianBlur stdDeviation="4"/>
<feComposite in2="hardAlpha" operator="out"/>
<feColorMatrix type="matrix" values="0 0 0 0 1 0 0 0 0 1 0 0 0 0 1 0 0 0 0.7 0"/>
<feBlend mode="normal" in2="BackgroundImageFix" result="effect1_dropShadow_3586_357"/>
<feBlend mode="normal" in="SourceGraphic" in2="effect1_dropShadow_3586_357" result="shape"/>
</filter>
<filter id="filter2_d_3586_357" x="0" y="0.739258" width="427.016" height="112.103" filterUnits="userSpaceOnUse" color-interpolation-filters="sRGB">
<feFlood flood-opacity="0" result="BackgroundImageFix"/>
<feColorMatrix in="SourceAlpha" type="matrix" values="0 0 0 0 0 0 0 0 0 0 0 0 0 0 0 0 0 0 127 0" result="hardAlpha"/>
<feOffset/>
<feGaussianBlur stdDeviation="4"/>
<feComposite in2="hardAlpha" operator="out"/>
<feColorMatrix type="matrix" values="0 0 0 0 1 0 0 0 0 1 0 0 0 0 1 0 0 0 0.7 0"/>
<feBlend mode="normal" in2="BackgroundImageFix" result="effect1_dropShadow_3586_357"/>
<feBlend mode="normal" in="SourceGraphic" in2="effect1_dropShadow_3586_357" result="shape"/>
</filter>
</defs>
</svg>
