<svg width="1540" height="185" viewBox="0 0 1540 185" fill="none" xmlns="http://www.w3.org/2000/svg">
<path d="M25.5195 138.033L55.5554 161.358L588.462 161.358L618.498 138.034V46.4089L588.462 23.084L407.154 23.084L397.501 31.2702L322.009 31.2702L246.517 31.2702L236.864 23.0842L55.5554 23.0842L25.5195 46.4091V138.033Z" fill="white" fill-opacity="0.1"/>
<path d="M935.148 138.033L964.511 161.358L1485.47 161.358L1514.83 138.034V46.4089L1485.47 23.084L1308.22 23.084L1298.79 31.2702L1224.99 31.2702L1151.19 31.2702L1141.75 23.0842L964.511 23.0842L935.148 46.4091V138.033Z" fill="white" fill-opacity="0.1"/>
<mask id="mask0_4921_8" style="mask-type:alpha" maskUnits="userSpaceOnUse" x="25" y="23" width="594" height="139">
<path d="M25.5195 138.033L55.5554 161.358L588.462 161.358L618.498 138.034V46.4089L588.462 23.084L407.154 23.084L397.501 31.2702L322.009 31.2702L246.517 31.2702L236.864 23.0842L55.5554 23.0842L25.5195 46.4091V138.033Z" fill="white"/>
</mask>
<g mask="url(#mask0_4921_8)">
<g opacity="0.5">
<line x1="-16.6953" y1="26.9688" x2="654.618" y2="26.9688" stroke="#050505"/>
<line x1="-16.6953" y1="32.6943" x2="654.618" y2="32.6943" stroke="#050505"/>
<line x1="-16.6953" y1="38.4199" x2="654.618" y2="38.4199" stroke="#050505"/>
<line x1="-16.6953" y1="44.1455" x2="654.618" y2="44.1455" stroke="#050505"/>
<line x1="-16.6953" y1="49.8711" x2="654.618" y2="49.8711" stroke="#050505"/>
<line x1="-16.6953" y1="55.5967" x2="654.618" y2="55.5967" stroke="#050505"/>
<line x1="-16.6953" y1="61.3223" x2="654.618" y2="61.3223" stroke="#050505"/>
<line x1="-16.6953" y1="67.0479" x2="654.618" y2="67.0479" stroke="#050505"/>
<line x1="-16.6953" y1="72.7734" x2="654.618" y2="72.7734" stroke="#050505"/>
<line x1="-16.6953" y1="78.499" x2="654.618" y2="78.499" stroke="#050505"/>
<line x1="-16.6953" y1="84.2246" x2="654.618" y2="84.2246" stroke="#050505"/>
<line x1="-16.6953" y1="89.9502" x2="654.618" y2="89.9502" stroke="#050505"/>
<line x1="-16.6953" y1="95.6758" x2="654.618" y2="95.6758" stroke="#050505"/>
<line x1="-16.6953" y1="101.401" x2="654.618" y2="101.401" stroke="#050505"/>
<line x1="-16.6953" y1="107.127" x2="654.618" y2="107.127" stroke="#050505"/>
<line x1="-16.6953" y1="112.853" x2="654.618" y2="112.853" stroke="#050505"/>
<line x1="-16.6953" y1="118.578" x2="654.618" y2="118.578" stroke="#050505"/>
<line x1="-16.6953" y1="124.304" x2="654.618" y2="124.304" stroke="#050505"/>
<line x1="-16.6953" y1="130.029" x2="654.618" y2="130.029" stroke="#050505"/>
<line x1="-16.6953" y1="135.755" x2="654.618" y2="135.755" stroke="#050505"/>
<line x1="-16.6953" y1="141.48" x2="654.618" y2="141.48" stroke="#050505"/>
<line x1="-16.6953" y1="147.206" x2="654.618" y2="147.206" stroke="#050505"/>
<line x1="-16.6953" y1="152.932" x2="654.618" y2="152.932" stroke="#050505"/>
<line x1="-16.6953" y1="158.657" x2="654.618" y2="158.657" stroke="#050505"/>
</g>
</g>
<mask id="mask1_4921_8" style="mask-type:alpha" maskUnits="userSpaceOnUse" x="935" y="23" width="580" height="139">
<path d="M935.148 138.033L964.511 161.358L1485.47 161.358L1514.83 138.034V46.4089L1485.47 23.084L1308.22 23.084L1298.79 31.2702L1224.99 31.2702L1151.19 31.2702L1141.75 23.0842L964.511 23.0842L935.148 46.4091V138.033Z" fill="white"/>
</mask>
<g mask="url(#mask1_4921_8)">
<g opacity="0.5">
<line x1="893.883" y1="26.9688" x2="1550.14" y2="26.9688" stroke="#050505"/>
<line x1="893.883" y1="32.6943" x2="1550.14" y2="32.6943" stroke="#050505"/>
<line x1="893.883" y1="38.4199" x2="1550.14" y2="38.4199" stroke="#050505"/>
<line x1="893.883" y1="44.1455" x2="1550.14" y2="44.1455" stroke="#050505"/>
<line x1="893.883" y1="49.8711" x2="1550.14" y2="49.8711" stroke="#050505"/>
<line x1="893.883" y1="55.5967" x2="1550.14" y2="55.5967" stroke="#050505"/>
<line x1="893.883" y1="61.3223" x2="1550.14" y2="61.3223" stroke="#050505"/>
<line x1="893.883" y1="67.0479" x2="1550.14" y2="67.0479" stroke="#050505"/>
<line x1="893.883" y1="72.7734" x2="1550.14" y2="72.7734" stroke="#050505"/>
<line x1="893.883" y1="78.499" x2="1550.14" y2="78.499" stroke="#050505"/>
<line x1="893.883" y1="84.2246" x2="1550.14" y2="84.2246" stroke="#050505"/>
<line x1="893.883" y1="89.9502" x2="1550.14" y2="89.9502" stroke="#050505"/>
<line x1="893.883" y1="95.6758" x2="1550.14" y2="95.6758" stroke="#050505"/>
<line x1="893.883" y1="101.401" x2="1550.14" y2="101.401" stroke="#050505"/>
<line x1="893.883" y1="107.127" x2="1550.14" y2="107.127" stroke="#050505"/>
<line x1="893.883" y1="112.853" x2="1550.14" y2="112.853" stroke="#050505"/>
<line x1="893.883" y1="118.578" x2="1550.14" y2="118.578" stroke="#050505"/>
<line x1="893.883" y1="124.304" x2="1550.14" y2="124.304" stroke="#050505"/>
<line x1="893.883" y1="130.029" x2="1550.14" y2="130.029" stroke="#050505"/>
<line x1="893.883" y1="135.755" x2="1550.14" y2="135.755" stroke="#050505"/>
<line x1="893.883" y1="141.48" x2="1550.14" y2="141.48" stroke="#050505"/>
<line x1="893.883" y1="147.206" x2="1550.14" y2="147.206" stroke="#050505"/>
<line x1="893.883" y1="152.932" x2="1550.14" y2="152.932" stroke="#050505"/>
<line x1="893.883" y1="158.657" x2="1550.14" y2="158.657" stroke="#050505"/>
</g>
</g>
<g filter="url(#filter0_d_4921_8)">
<path d="M391.78 18.881H391.954L392.091 18.7729L402.535 10.5001L600.915 10.5L633.518 37.4385V147.45L600.915 174.388L43.1024 174.388L10.5 147.45V37.4387L43.1024 10.5003L241.483 10.5002L251.927 18.773L252.063 18.8811H252.237L322.009 18.881L391.78 18.881Z" stroke="white" shape-rendering="crispEdges"/>
</g>
<g filter="url(#filter1_d_4921_8)">
<path d="M1293.19 18.881H1293.37L1293.51 18.7695L1303.71 10.5001L1497.63 10.5L1529.5 37.435V147.453L1497.63 174.388L952.344 174.388L920.477 147.453V37.4353L952.344 10.5003L1146.26 10.5002L1156.47 18.7696L1156.6 18.8811H1156.78L1224.99 18.881L1293.19 18.881Z" stroke="white" shape-rendering="crispEdges"/>
</g>
<path d="M767.781 92.2754H746.812V87.0605H767.781V65.9834H772.996V87.0605H794.073V92.2754H772.996V113.353H767.781V92.2754Z" fill="#F9F8FD"/>
<g style="mix-blend-mode:difference">
<path d="M1145.76 64.6494H1156.16V120.649H1145.76V64.6494ZM1116.8 120.649H1106.4V64.6494H1116.8V120.649ZM1146.56 96.6494H1115.92V87.7694H1146.56V96.6494ZM1180.76 87.9294H1208.6V96.4894H1180.76V87.9294ZM1181.56 111.929H1213.16V120.649H1171.16V64.6494H1212.04V73.3694H1181.56V111.929ZM1224.76 120.649V64.6494H1247.8C1252.76 64.6494 1257 65.4494 1260.52 67.0494C1264.09 68.6494 1266.84 70.9427 1268.76 73.9294C1270.68 76.9161 1271.64 80.4627 1271.64 84.5694C1271.64 88.6761 1270.68 92.2227 1268.76 95.2094C1266.84 98.1427 1264.09 100.409 1260.52 102.009C1257 103.556 1252.76 104.329 1247.8 104.329H1230.52L1235.16 99.6094V120.649H1224.76ZM1261.4 120.649L1247.24 100.329H1258.36L1272.6 120.649H1261.4ZM1235.16 100.729L1230.52 95.7694H1247.32C1251.9 95.7694 1255.34 94.7827 1257.64 92.8094C1259.98 90.8361 1261.16 88.0894 1261.16 84.5694C1261.16 80.9961 1259.98 78.2494 1257.64 76.3294C1255.34 74.4094 1251.9 73.4494 1247.32 73.4494H1230.52L1235.16 68.3294V100.729ZM1309.51 121.449C1305.14 121.449 1301.11 120.729 1297.43 119.289C1293.75 117.849 1290.55 115.849 1287.83 113.289C1285.11 110.676 1283.01 107.636 1281.51 104.169C1280.02 100.649 1279.27 96.8094 1279.27 92.6494C1279.27 88.4894 1280.02 84.6761 1281.51 81.2094C1283.01 77.6894 1285.11 74.6494 1287.83 72.0894C1290.55 69.4761 1293.75 67.4494 1297.43 66.0094C1301.11 64.5694 1305.11 63.8494 1309.43 63.8494C1313.81 63.8494 1317.81 64.5694 1321.43 66.0094C1325.11 67.4494 1328.31 69.4761 1331.03 72.0894C1333.75 74.6494 1335.86 77.6894 1337.35 81.2094C1338.85 84.6761 1339.59 88.4894 1339.59 92.6494C1339.59 96.8094 1338.85 100.649 1337.35 104.169C1335.86 107.689 1333.75 110.729 1331.03 113.289C1328.31 115.849 1325.11 117.849 1321.43 119.289C1317.81 120.729 1313.83 121.449 1309.51 121.449ZM1309.43 112.329C1312.26 112.329 1314.87 111.849 1317.27 110.889C1319.67 109.929 1321.75 108.569 1323.51 106.809C1325.27 104.996 1326.63 102.916 1327.59 100.569C1328.61 98.1694 1329.11 95.5294 1329.11 92.6494C1329.11 89.7694 1328.61 87.1561 1327.59 84.8094C1326.63 82.4094 1325.27 80.3294 1323.51 78.5694C1321.75 76.7561 1319.67 75.3694 1317.27 74.4094C1314.87 73.4494 1312.26 72.9694 1309.43 72.9694C1306.61 72.9694 1303.99 73.4494 1301.59 74.4094C1299.25 75.3694 1297.17 76.7561 1295.35 78.5694C1293.59 80.3294 1292.21 82.4094 1291.19 84.8094C1290.23 87.1561 1289.75 89.7694 1289.75 92.6494C1289.75 95.4761 1290.23 98.0894 1291.19 100.489C1292.21 102.889 1293.59 104.996 1295.35 106.809C1297.11 108.569 1299.19 109.929 1301.59 110.889C1303.99 111.849 1306.61 112.329 1309.43 112.329Z" fill="white"/>
</g>
<g style="mix-blend-mode:difference">
<path d="M153.2 121.444V65.4443H161.76L196.88 108.564H192.64V65.4443H202.96V121.444H194.4L159.28 78.3243H163.52V121.444H153.2ZM236.205 122.004C231.832 122.004 227.939 121.071 224.525 119.204C221.112 117.284 218.419 114.671 216.445 111.364C214.472 108.058 213.485 104.298 213.485 100.084C213.485 95.8177 214.472 92.0577 216.445 88.8043C218.419 85.4977 221.112 82.911 224.525 81.0443C227.939 79.1777 231.832 78.2443 236.205 78.2443C240.632 78.2443 244.552 79.1777 247.965 81.0443C251.432 82.911 254.125 85.471 256.045 88.7243C258.019 91.9777 259.005 95.7643 259.005 100.084C259.005 104.298 258.019 108.058 256.045 111.364C254.125 114.671 251.432 117.284 247.965 119.204C244.552 121.071 240.632 122.004 236.205 122.004ZM236.205 113.444C238.659 113.444 240.845 112.911 242.765 111.844C244.685 110.778 246.179 109.231 247.245 107.204C248.365 105.178 248.925 102.804 248.925 100.084C248.925 97.311 248.365 94.9377 247.245 92.9643C246.179 90.9377 244.685 89.391 242.765 88.3243C240.845 87.2577 238.685 86.7243 236.285 86.7243C233.832 86.7243 231.645 87.2577 229.725 88.3243C227.859 89.391 226.365 90.9377 225.245 92.9643C224.125 94.9377 223.565 97.311 223.565 100.084C223.565 102.804 224.125 105.178 225.245 107.204C226.365 109.231 227.859 110.778 229.725 111.844C231.645 112.911 233.805 113.444 236.205 113.444ZM317.557 122.244C313.291 122.244 309.317 121.551 305.637 120.164C302.011 118.724 298.837 116.724 296.117 114.164C293.451 111.551 291.371 108.484 289.877 104.964C288.384 101.444 287.637 97.6043 287.637 93.4443C287.637 89.2843 288.384 85.4443 289.877 81.9243C291.371 78.4043 293.477 75.3643 296.197 72.8043C298.917 70.191 302.091 68.191 305.717 66.8043C309.344 65.3643 313.317 64.6443 317.637 64.6443C322.224 64.6443 326.411 65.4443 330.197 67.0443C333.984 68.591 337.184 70.911 339.797 74.0043L333.077 80.3243C331.051 78.1377 328.784 76.511 326.277 75.4443C323.771 74.3243 321.051 73.7643 318.117 73.7643C315.184 73.7643 312.491 74.2443 310.037 75.2043C307.637 76.1643 305.531 77.5243 303.717 79.2843C301.957 81.0443 300.571 83.1243 299.557 85.5243C298.597 87.9243 298.117 90.5643 298.117 93.4443C298.117 96.3243 298.597 98.9643 299.557 101.364C300.571 103.764 301.957 105.844 303.717 107.604C305.531 109.364 307.637 110.724 310.037 111.684C312.491 112.644 315.184 113.124 318.117 113.124C321.051 113.124 323.771 112.591 326.277 111.524C328.784 110.404 331.051 108.724 333.077 106.484L339.797 112.884C337.184 115.924 333.984 118.244 330.197 119.844C326.411 121.444 322.197 122.244 317.557 122.244ZM374.732 121.444V112.804L374.172 110.964V95.8443C374.172 92.911 373.292 90.6443 371.532 89.0443C369.772 87.391 367.105 86.5643 363.532 86.5643C361.132 86.5643 358.758 86.9377 356.412 87.6843C354.118 88.431 352.172 89.471 350.572 90.8043L346.652 83.5243C348.945 81.7643 351.665 80.4577 354.812 79.6043C358.012 78.6977 361.318 78.2443 364.732 78.2443C370.918 78.2443 375.692 79.7377 379.052 82.7243C382.465 85.6577 384.172 90.2177 384.172 96.4043V121.444H374.732ZM361.292 122.004C358.092 122.004 355.292 121.471 352.892 120.404C350.492 119.284 348.625 117.764 347.292 115.844C346.012 113.871 345.372 111.658 345.372 109.204C345.372 106.804 345.932 104.644 347.052 102.724C348.225 100.804 350.118 99.2843 352.732 98.1643C355.345 97.0443 358.812 96.4843 363.132 96.4843H375.532V103.124H363.852C360.438 103.124 358.145 103.684 356.972 104.804C355.798 105.871 355.212 107.204 355.212 108.804C355.212 110.618 355.932 112.058 357.372 113.124C358.812 114.191 360.812 114.724 363.372 114.724C365.825 114.724 368.012 114.164 369.932 113.044C371.905 111.924 373.318 110.271 374.172 108.084L375.852 114.084C374.892 116.591 373.158 118.538 370.652 119.924C368.198 121.311 365.078 122.004 361.292 122.004ZM421.245 78.2443C424.659 78.2443 427.699 78.911 430.365 80.2443C433.085 81.5777 435.219 83.631 436.765 86.4043C438.312 89.1243 439.085 92.6443 439.085 96.9643V121.444H429.085V98.2443C429.085 94.4577 428.179 91.631 426.365 89.7643C424.605 87.8977 422.125 86.9643 418.925 86.9643C416.579 86.9643 414.499 87.4443 412.685 88.4043C410.872 89.3643 409.459 90.8043 408.445 92.7243C407.485 94.591 407.005 96.9643 407.005 99.8443V121.444H397.005V78.7243H406.525V90.2443L404.845 86.7243C406.339 84.0043 408.499 81.9243 411.325 80.4843C414.205 78.991 417.512 78.2443 421.245 78.2443ZM448.74 86.3243L453.38 68.5643L454.74 74.5643C452.874 74.5643 451.3 73.9777 450.02 72.8043C448.794 71.631 448.18 70.0577 448.18 68.0843C448.18 66.111 448.794 64.5377 450.02 63.3643C451.3 62.1377 452.847 61.5243 454.66 61.5243C456.527 61.5243 458.074 62.1377 459.3 63.3643C460.527 64.591 461.14 66.1643 461.14 68.0843C461.14 68.671 461.087 69.2843 460.98 69.9243C460.927 70.511 460.767 71.2043 460.5 72.0043C460.287 72.751 459.914 73.7377 459.38 74.9643L455.22 86.3243H448.74ZM487.07 122.004C482.376 122.004 478.75 120.804 476.19 118.404C473.63 115.951 472.35 112.351 472.35 107.604V69.2843H482.35V107.364C482.35 109.391 482.856 110.964 483.87 112.084C484.936 113.204 486.403 113.764 488.27 113.764C490.51 113.764 492.376 113.178 493.87 112.004L496.67 119.124C495.496 120.084 494.056 120.804 492.35 121.284C490.643 121.764 488.883 122.004 487.07 122.004ZM465.31 87.0443V79.0443H493.79V87.0443H465.31Z" fill="#F9F8FD"/>
</g>
<defs>
<filter id="filter0_d_4921_8" x="0" y="0" width="644.016" height="184.889" filterUnits="userSpaceOnUse" color-interpolation-filters="sRGB">
<feFlood flood-opacity="0" result="BackgroundImageFix"/>
<feColorMatrix in="SourceAlpha" type="matrix" values="0 0 0 0 0 0 0 0 0 0 0 0 0 0 0 0 0 0 127 0" result="hardAlpha"/>
<feOffset/>
<feGaussianBlur stdDeviation="5"/>
<feComposite in2="hardAlpha" operator="out"/>
<feColorMatrix type="matrix" values="0 0 0 0 1 0 0 0 0 1 0 0 0 0 1 0 0 0 1 0"/>
<feBlend mode="normal" in2="BackgroundImageFix" result="effect1_dropShadow_4921_8"/>
<feBlend mode="normal" in="SourceGraphic" in2="effect1_dropShadow_4921_8" result="shape"/>
</filter>
<filter id="filter1_d_4921_8" x="909.977" y="0" width="630.023" height="184.889" filterUnits="userSpaceOnUse" color-interpolation-filters="sRGB">
<feFlood flood-opacity="0" result="BackgroundImageFix"/>
<feColorMatrix in="SourceAlpha" type="matrix" values="0 0 0 0 0 0 0 0 0 0 0 0 0 0 0 0 0 0 127 0" result="hardAlpha"/>
<feOffset/>
<feGaussianBlur stdDeviation="5"/>
<feComposite in2="hardAlpha" operator="out"/>
<feColorMatrix type="matrix" values="0 0 0 0 1 0 0 0 0 1 0 0 0 0 1 0 0 0 1 0"/>
<feBlend mode="normal" in2="BackgroundImageFix" result="effect1_dropShadow_4921_8"/>
<feBlend mode="normal" in="SourceGraphic" in2="effect1_dropShadow_4921_8" result="shape"/>
</filter>
</defs>
</svg>
